<svg width="11" height="11" viewBox="0 0 11 11" fill="none" xmlns="http://www.w3.org/2000/svg">
<path d="M1.82845 7.89876C1.47698 8.25023 1.47698 8.82008 1.82845 9.17155C2.17992 9.52302 2.74977 9.52302 3.10124 9.17155L1.82845 7.89876ZM10.4359 1.46409C10.4359 0.967032 10.033 0.564088 9.53591 0.564088L1.43591 0.564089C0.938856 0.564088 0.535912 0.967032 0.535912 1.46409C0.535912 1.96114 0.938856 2.36409 1.43591 2.36409H8.63591V9.56409C8.63591 10.0611 9.03886 10.4641 9.53591 10.4641C10.033 10.4641 10.4359 10.0611 10.4359 9.56409L10.4359 1.46409ZM3.10124 9.17155L10.1723 2.10048L8.89952 0.827692L1.82845 7.89876L3.10124 9.17155Z" fill="url(#paint0_linear_9600_4306)"/>
<defs>
<linearGradient id="paint0_linear_9600_4306" x1="1.89303" y1="9.01588" x2="6.90109" y2="11.0254" gradientUnits="userSpaceOnUse">
<stop offset="0.00972591" stop-color="#44C3F9"/>
<stop offset="1" stop-color="#27E4A0"/>
</linearGradient>
</defs>
</svg>
