<svg width="21" height="21" viewBox="0 0 21 21" fill="none" xmlns="http://www.w3.org/2000/svg">
<path fill-rule="evenodd" clip-rule="evenodd" d="M10.0898 0.376953C15.609 0.376953 20.0898 4.85781 20.0898 10.377C20.0898 15.8961 15.609 20.377 10.0898 20.377C4.5707 20.377 0.0898438 15.8961 0.0898438 10.377C0.0898438 4.85781 4.5707 0.376953 10.0898 0.376953ZM16.0787 7.36828C15.935 6.83043 15.5114 6.40695 14.9736 6.2632C13.9987 6.00195 10.0898 6.00195 10.0898 6.00195C10.0898 6.00195 6.18098 6.00195 5.20605 6.2632C4.66836 6.40695 4.24473 6.83043 4.10098 7.36828C3.83984 8.34309 3.83984 10.377 3.83984 10.377C3.83984 10.377 3.83984 12.4109 4.10098 13.3856C4.24473 13.9235 4.66836 14.3471 5.20605 14.4908C6.18098 14.752 10.0898 14.752 10.0898 14.752C10.0898 14.752 13.9987 14.752 14.9736 14.4908C15.5114 14.3471 15.935 13.9235 16.0787 13.3856C16.3398 12.4109 16.3398 10.377 16.3398 10.377C16.3398 10.377 16.3398 8.34309 16.0787 7.36828ZM8.8398 12.2521V8.50199L12.0873 10.377L8.8398 12.2521Z" fill="url(#paint0_linear_9272_3482)"/>
<defs>
<linearGradient id="paint0_linear_9272_3482" x1="-1.39868" y1="-0.911276" x2="24.6418" y2="5.18303" gradientUnits="userSpaceOnUse">
<stop offset="0.00972591" stop-color="#44C3F9"/>
<stop offset="1" stop-color="#27E4A0"/>
</linearGradient>
</defs>
</svg>
