<svg width="21" height="21" viewBox="0 0 21 21" fill="none" xmlns="http://www.w3.org/2000/svg">
<g clip-path="url(#clip0_9272_3474)">
<path fill-rule="evenodd" clip-rule="evenodd" d="M10.0516 20.3769L10.0606 20.3769H10.0575L10.0516 20.3769ZM10.1222 20.3769H10.1191L10.128 20.3769L10.1222 20.3769ZM10.0211 20.3767L10.0307 20.3768H10.0252L10.0211 20.3767ZM10.1545 20.3768H10.1489L10.1586 20.3767L10.1545 20.3768ZM9.99164 20.3765L9.99809 20.3765L9.99293 20.3765H9.99164ZM10.1868 20.3765L10.1816 20.3765L10.188 20.3765H10.1868ZM10.219 20.3761L10.2168 20.3762L10.2255 20.3761L10.219 20.3761ZM9.95422 20.3761L9.96293 20.3762L9.96066 20.3761L9.95422 20.3761ZM10.2512 20.3757L10.246 20.3757L10.2567 20.3756L10.2512 20.3757ZM9.92297 20.3756L9.93371 20.3757L9.92844 20.3757L9.92297 20.3756ZM10.2834 20.3751L10.2763 20.3752L10.2863 20.375L10.2834 20.3751ZM9.89344 20.375L9.90336 20.3752L9.89625 20.3751L9.89344 20.375ZM9.85684 20.3743L9.86562 20.3745L9.86406 20.3745L9.85684 20.3743ZM10.3156 20.3745L10.3141 20.3745L10.3229 20.3743L10.3156 20.3745ZM9.82473 20.3735L9.8368 20.3738L9.83191 20.3737L9.82473 20.3735ZM10.3478 20.3737L10.3429 20.3738L10.355 20.3735L10.3478 20.3737ZM10.3799 20.3728L10.3721 20.373L10.3844 20.3727L10.3799 20.3728ZM9.79527 20.3727L9.80762 20.373L9.79977 20.3728L9.79527 20.3727ZM9.76715 20.3718L9.77594 20.3721L9.76766 20.3718L9.76008 20.3716L9.76715 20.3718ZM10.412 20.3718L10.4038 20.3721L10.4125 20.3718L10.4196 20.3716L10.412 20.3718ZM10.4441 20.3708L10.4397 20.3709L10.4532 20.3705L10.4441 20.3708ZM9.72648 20.3705L9.73996 20.3709L9.73559 20.3708L9.72648 20.3705ZM9.69723 20.3694L9.71137 20.3699L9.70352 20.3696L9.69723 20.3694ZM10.4762 20.3696L10.4683 20.3699L10.4825 20.3694L10.4762 20.3696ZM9.66852 20.3682L9.68234 20.3688L9.67152 20.3684L9.66852 20.3682ZM10.5082 20.3684L10.4973 20.3688L10.5112 20.3682L10.5082 20.3684ZM9.62828 20.3664L9.64312 20.3671L9.63949 20.367L9.62828 20.3664ZM10.5402 20.367L10.5366 20.3671L10.5514 20.3664L10.5402 20.367ZM9.59941 20.3651L9.61481 20.3658L9.60754 20.3655L9.59941 20.3651ZM10.5721 20.3655L10.5649 20.3658L10.5803 20.3651L10.5721 20.3655ZM9.57098 20.3637L9.58648 20.3645L9.57559 20.3639L9.57098 20.3637ZM10.6041 20.3639L10.5932 20.3645L10.6087 20.3637L10.6041 20.3639ZM10.6361 20.3623L10.6219 20.363L10.6345 20.3623L10.6492 20.3615L10.6361 20.3623ZM9.54523 20.3623L9.55777 20.363L9.54363 20.3623L9.53047 20.3615L9.54523 20.3623ZM10.6679 20.3605L10.6617 20.3608L10.6775 20.3599L10.6679 20.3605ZM9.50215 20.3599L9.51801 20.3608L9.51176 20.3605L9.50215 20.3599ZM9.47395 20.3582L9.48977 20.3592L9.47988 20.3586L9.47395 20.3582ZM10.6998 20.3586L10.6899 20.3592L10.7057 20.3582L10.6998 20.3586ZM9.44703 20.3566L9.46129 20.3575L9.44801 20.3566L9.43465 20.3558L9.44703 20.3566ZM10.7317 20.3566L10.7184 20.3575L10.7327 20.3566L10.745 20.3558L10.7317 20.3566ZM10.7635 20.3546L10.7587 20.3549L10.7738 20.3539L10.7635 20.3546ZM9.40586 20.3539L9.42098 20.3549L9.41621 20.3546L9.40586 20.3539ZM9.3777 20.3519L9.39254 20.353L9.38441 20.3524L9.3777 20.3519ZM10.7953 20.3524L10.7871 20.353L10.802 20.3519L10.7953 20.3524ZM9.34961 20.3499L9.36324 20.3509L9.35266 20.3502L9.34961 20.3499ZM10.827 20.3502L10.8164 20.3509L10.8301 20.3499L10.827 20.3502ZM9.31184 20.3471L9.32379 20.348L9.3209 20.3478L9.31184 20.3471ZM10.8588 20.3478L10.8559 20.348L10.8679 20.3471L10.8588 20.3478ZM10.8905 20.3453L10.8848 20.3457L10.8969 20.3448L10.8905 20.3453ZM9.28277 20.3448L9.29492 20.3457L9.28922 20.3453L9.28277 20.3448ZM9.25445 20.3425L9.26477 20.3433L9.2575 20.3427L9.25445 20.3425ZM10.9222 20.3427L10.9149 20.3433L10.9252 20.3425L10.9222 20.3427ZM9.22328 20.3398L9.22637 20.3401L9.22586 20.3401L9.22328 20.3398ZM10.9538 20.3401L10.9533 20.3401L10.9564 20.3398L10.9538 20.3401ZM10.9855 20.3373L10.9827 20.3375L10.9897 20.3369L10.9855 20.3373ZM9.18996 20.3369L9.19703 20.3375L9.19422 20.3373L9.18996 20.3369ZM9.16066 20.3343L9.16594 20.3348L9.16266 20.3345L9.16066 20.3343ZM11.017 20.3345L11.0138 20.3348L11.019 20.3343L11.017 20.3345ZM8.52734 20.2554C3.74926 19.5043 0.0898438 15.3646 0.0898438 10.377C0.0898438 4.85781 4.5707 0.376953 10.0898 0.376953C15.609 0.376953 20.0898 4.85781 20.0898 10.377C20.0898 15.3646 16.4304 19.5043 11.6523 20.2554V13.2676H13.9824L14.4258 10.377H11.6523V8.50113C11.6523 7.71031 12.0398 6.93945 13.282 6.93945H14.543V4.47852C14.543 4.47852 13.3986 4.2832 12.3045 4.2832C10.0203 4.2832 8.52734 5.66758 8.52734 8.17383V10.377H5.98828V13.2676H8.52734V20.2554Z" fill="url(#paint0_linear_9272_3474)"/>
</g>
<defs>
<linearGradient id="paint0_linear_9272_3474" x1="-1.39868" y1="-0.911274" x2="24.6418" y2="5.18304" gradientUnits="userSpaceOnUse">
<stop offset="0.00972591" stop-color="#44C3F9"/>
<stop offset="1" stop-color="#27E4A0"/>
</linearGradient>
<clipPath id="clip0_9272_3474">
<rect width="20" height="20" fill="white" transform="translate(0.0898438 0.376953)"/>
</clipPath>
</defs>
</svg>
