<svg width="49" height="49" viewBox="0 0 49 49" fill="none" xmlns="http://www.w3.org/2000/svg">
<rect x="0.867188" y="1.46875" width="47" height="47" rx="10.5" fill="url(#paint0_linear_10025_1327)" stroke="white"/>
<path d="M24.0289 10.8309C23.9202 11.2667 23.8665 11.6472 23.8665 12.0213C23.8665 14.7678 26.0962 17.0038 28.8393 17.0038V17.0039L28.8484 17.0037C29.2732 16.9961 29.6954 16.9339 30.1045 16.8187C30.2531 16.7796 30.4088 16.7757 30.5591 16.8075C30.7105 16.8395 30.8524 16.9068 30.9732 17.0039C31.0941 17.1011 31.1905 17.2254 31.2547 17.367L31.6827 17.173L31.2547 17.367C31.3189 17.5086 31.349 17.6633 31.3425 17.8188L31.3425 17.8188L31.3423 17.8249C31.3423 17.8244 31.3423 17.8246 31.3423 17.8255C31.3421 17.8279 31.3416 17.8359 31.3403 17.8508C31.3388 17.8687 31.3367 17.8904 31.3344 17.9133C31.3293 17.9613 31.3242 18.0031 31.322 18.018L31.3167 18.0546L31.3167 18.0916C31.3218 20.7513 33.5574 22.9805 36.294 22.9805V22.9806L36.302 22.9805C36.7178 22.9739 37.1311 22.914 37.5317 22.8024C37.6753 22.7666 37.8251 22.7632 37.9702 22.7925C38.1166 22.822 38.2545 22.8841 38.3739 22.9742C38.4925 23.065 38.5894 23.1815 38.6572 23.315C38.7252 23.4489 38.7623 23.5965 38.7656 23.7468L38.7658 23.757L38.7665 23.7673C38.7726 23.8645 38.7759 23.9201 38.7759 23.9747C38.7759 31.9385 32.3104 38.4165 24.3665 38.4165C16.4227 38.4165 9.95715 31.9385 9.95715 23.9747L9.95714 23.9728C9.94311 20.381 11.2711 16.9141 13.6795 14.2546C16.0879 11.5952 19.4021 9.93569 22.9698 9.60245L22.9716 9.60228C23.1292 9.58698 23.2882 9.60979 23.4352 9.66883C23.5822 9.72786 23.7131 9.82143 23.8168 9.94177C23.9204 10.0621 23.9938 10.2057 24.0308 10.3605C24.0676 10.5152 24.067 10.6765 24.0289 10.8309ZM24.0289 10.8309C24.0289 10.8307 24.029 10.8306 24.029 10.8304L24.5141 10.9514M24.0289 10.8309C24.0288 10.831 24.0288 10.8312 24.0288 10.8313L24.5141 10.9514M24.5141 10.9514C24.4127 11.3578 24.3665 11.697 24.3665 12.0213C24.3665 14.4926 26.3733 16.5038 28.8393 16.5038L24.5141 10.9514ZM31.8167 18.0906C31.8242 18.0398 31.8406 17.8904 31.8421 17.8396L37.4033 22.3192C37.042 22.4203 36.6692 22.4746 36.294 22.4805C33.828 22.4805 31.8212 20.4694 31.8167 18.0906ZM21.0836 15.3129C20.5705 14.7987 19.8743 14.5096 19.1482 14.5096C18.4222 14.5096 17.726 14.7987 17.2129 15.3129C16.6999 15.8271 16.4118 16.5242 16.4118 17.2509C16.4118 17.9776 16.6999 18.6747 17.2129 19.1889C17.726 19.7031 18.4222 19.9922 19.1482 19.9922C19.8743 19.9922 20.5705 19.7031 21.0836 19.1889C21.5966 18.6747 21.8847 17.9776 21.8847 17.2509C21.8847 16.5242 21.5966 15.8271 21.0836 15.3129ZM15.1188 27.2543C15.4509 27.3921 15.8069 27.4631 16.1664 27.4631C16.8925 27.4631 17.5886 27.174 18.1017 26.6598C18.6147 26.1456 18.9028 25.4485 18.9028 24.7218C18.9028 23.9951 18.6147 23.298 18.1017 22.7838C17.5886 22.2696 16.8925 21.9805 16.1664 21.9805C15.8069 21.9805 15.4509 22.0515 15.1188 22.1894C14.7868 22.3272 14.4851 22.5292 14.2311 22.7838C13.977 23.0384 13.7755 23.3406 13.6381 23.6731C13.5007 24.0056 13.43 24.362 13.43 24.7218C13.43 25.0816 13.5007 25.438 13.6381 25.7705C13.7755 26.103 13.977 26.4052 14.2311 26.6598C14.4851 26.9144 14.7868 27.1164 15.1188 27.2543ZM18.7039 32.6365C19.217 33.1507 19.9131 33.4398 20.6392 33.4398C21.3653 33.4398 22.0614 33.1507 22.5745 32.6365C23.0876 32.1224 23.3756 31.4252 23.3756 30.6985C23.3756 29.9719 23.0876 29.2747 22.5745 28.7606C22.0614 28.2463 21.3653 27.9573 20.6392 27.9573C19.9131 27.9573 19.217 28.2463 18.7039 28.7606C18.1908 29.2747 17.9028 29.9719 17.9028 30.6985C17.9028 31.4252 18.1908 32.1224 18.7039 32.6365ZM24.6676 21.2896C24.1546 21.8038 23.8665 22.5009 23.8665 23.2276C23.8665 23.9543 24.1546 24.6514 24.6676 25.1656C25.1807 25.6798 25.8768 25.9689 26.6029 25.9689C27.329 25.9689 28.0252 25.6798 28.5383 25.1656C29.0513 24.6514 29.3393 23.9543 29.3393 23.2276C29.3393 22.5009 29.0513 21.8038 28.5383 21.2896C28.0252 20.7754 27.329 20.4864 26.6029 20.4864C25.8768 20.4864 25.1807 20.7754 24.6676 21.2896ZM27.6495 32.6365C28.1626 33.1507 28.8587 33.4398 29.5848 33.4398C30.3109 33.4398 31.007 33.1507 31.5201 32.6365C32.0332 32.1224 32.3212 31.4252 32.3212 30.6985C32.3212 29.9719 32.0332 29.2747 31.5201 28.7606C31.007 28.2463 30.3109 27.9573 29.5848 27.9573C28.8587 27.9573 28.1626 28.2463 27.6495 28.7606C27.1364 29.2747 26.8484 29.9719 26.8484 30.6985C26.8484 31.4252 27.1364 32.1224 27.6495 32.6365Z" fill="white" stroke="white"/>
<defs>
<linearGradient id="paint0_linear_10025_1327" x1="-3.20527" y1="-2.123" x2="59.2919" y2="12.5033" gradientUnits="userSpaceOnUse">
<stop offset="0.00972591" stop-color="#44C3F9"/>
<stop offset="1" stop-color="#27E4A0"/>
</linearGradient>
</defs>
</svg>
