<svg width="49" height="49" viewBox="0 0 49 49" fill="none" xmlns="http://www.w3.org/2000/svg">
<rect x="0.722656" y="0.697266" width="47" height="47" rx="10.5" fill="url(#paint0_linear_10025_2370)" stroke="white"/>
<path d="M35.4141 12.9082H12.7474C11.1848 12.9082 9.91406 14.179 9.91406 15.7415V32.7415C9.91406 34.3041 11.1848 35.5749 12.7474 35.5749H35.4141C36.9766 35.5749 38.2474 34.3041 38.2474 32.7415V15.7415C38.2474 14.179 36.9766 12.9082 35.4141 12.9082ZM19.427 18.5749C21.0576 18.5749 22.2603 19.7776 22.2603 21.4082C22.2603 23.0388 21.0576 24.2415 19.427 24.2415C17.7964 24.2415 16.5936 23.0388 16.5936 21.4082C16.5936 19.7776 17.795 18.5749 19.427 18.5749ZM24.6899 29.9082H14.1641V29.2495C14.1641 27.3044 16.5384 25.304 19.427 25.304C22.3156 25.304 24.6899 27.3044 24.6899 29.2495V29.9082ZM33.9974 28.4915H28.3307V25.6582H33.9974V28.4915ZM33.9974 22.8249H26.9141V19.9915H33.9974V22.8249Z" fill="white"/>
<defs>
<linearGradient id="paint0_linear_10025_2370" x1="-3.3498" y1="-2.89449" x2="59.1473" y2="11.7318" gradientUnits="userSpaceOnUse">
<stop offset="0.00972591" stop-color="#44C3F9"/>
<stop offset="1" stop-color="#27E4A0"/>
</linearGradient>
</defs>
</svg>
