<svg width="49" height="49" viewBox="0 0 49 49" fill="none" xmlns="http://www.w3.org/2000/svg">
<g clip-path="url(#clip0_10025_1209)">
<rect x="0.363281" y="0.96875" width="48" height="48" rx="11" fill="white"/>
<g opacity="0.3" filter="url(#filter0_f_10025_1209)">
<path d="M9.2832 5.21582C9.2832 0.21582 5.9734 -2.19943 3.7832 -2.78418L-1.61682 -2.05113L-0.789873 19.9333L11.2016 19.4823C4.92397 12.2131 9.2832 11.2986 9.2832 5.21582Z" fill="black"/>
</g>
<path d="M27.2178 16.9372C27.7105 3.83863 19.2777 -2.81479 13.5977 -4.5625L-0.621094 -3.17425L-0.621094 54.5003H30.8377C15.1083 34.8385 26.6184 32.8723 27.2178 16.9372Z" fill="url(#paint0_linear_10025_1209)"/>
<path d="M12.8881 25.7967C17.4575 25.7967 20.7739 23.4514 20.7739 20.04V20.0223C20.7739 17.3394 19.2631 15.8292 15.3018 14.9408L12.1512 14.2479C10.0692 13.7682 9.27689 12.9864 9.27689 11.8315V11.8138C9.27689 10.3213 10.6219 9.3441 12.7592 9.3441C15.007 9.3441 16.3336 10.4812 16.5731 12.1158V12.1158C16.5837 12.1873 16.645 12.2402 16.7173 12.2402H20.1177C20.2328 12.2402 20.3232 12.1416 20.3133 12.027V12.027C20.1107 8.84661 17.3469 6.37695 12.7592 6.37695C8.30038 6.37695 5.27872 8.66894 5.27872 12.0092V12.027C5.27872 14.7454 7.10277 16.451 10.7877 17.2683L13.9568 17.9613C16.0388 18.441 16.7389 19.1339 16.7389 20.3421V20.3598C16.7389 21.8701 15.3018 22.8295 12.9066 22.8295C10.4561 22.8295 9.12949 21.8168 8.761 20.0933V20.0933C8.73954 19.9899 8.64838 19.9157 8.5427 19.9157H4.94221C4.85646 19.9157 4.78986 19.9904 4.79967 20.0756V20.0756C5.20502 23.4869 8.04243 25.7967 12.8881 25.7967Z" fill="white"/>
<path d="M35.8822 24.9688C31.1153 24.9688 27.2422 28.842 27.2422 33.6088C27.2422 38.3755 31.1153 42.2488 35.8822 42.2488C40.649 42.2488 44.5222 38.3755 44.5222 33.6088C44.5222 28.842 40.649 24.9688 35.8822 24.9688ZM34.6632 25.8934C33.9023 26.5282 32.8785 27.6057 32.1261 29.1616C31.4245 28.8626 30.8235 28.5037 30.3168 28.1266C31.4647 26.9651 32.9722 26.158 34.6632 25.8934ZM37.1012 25.8934C38.7922 26.158 40.2997 26.9651 41.4476 28.1266C40.9408 28.5037 40.3399 28.8626 39.6383 29.1616C38.8859 27.6057 37.862 26.5282 37.1012 25.8934ZM35.4727 26.2981V29.8846C34.4896 29.8469 33.6173 29.682 32.8507 29.4319C33.6781 27.7037 34.848 26.73 35.4727 26.2981ZM36.2917 26.2981C36.9164 26.73 38.0863 27.7037 38.9136 29.4319C38.147 29.682 37.2748 29.8469 36.2917 29.8846V26.2981ZM29.7745 28.7393C30.3362 29.1627 31.008 29.569 31.7933 29.9054C31.4347 30.846 31.1905 31.9404 31.1455 33.1992H28.082C28.1692 31.513 28.7864 29.9739 29.7745 28.7393ZM41.9899 28.7393C42.978 29.9739 43.5951 31.513 43.6823 33.1992H40.619C40.5739 31.9404 40.3297 30.846 39.9711 29.9054C40.7564 29.569 41.4282 29.1627 41.9899 28.7393ZM32.5308 30.1854C33.3921 30.4745 34.3712 30.6654 35.4727 30.7053V33.1992H31.9693C32.0116 32.0399 32.2195 31.035 32.5308 30.1854ZM39.2336 30.1854C39.5449 31.035 39.7528 32.0399 39.7951 33.1992H36.2917V30.7053C37.3931 30.6654 38.3723 30.4745 39.2336 30.1854ZM28.082 34.0183H31.1455C31.1905 35.2771 31.4347 36.3715 31.7933 37.3121C31.008 37.6485 30.3362 38.0548 29.7745 38.4782C28.7864 37.2436 28.1692 35.7045 28.082 34.0183ZM31.9693 34.0183H35.4727V36.5122C34.3712 36.5521 33.3921 36.743 32.5308 37.0321C32.2195 36.1825 32.0116 35.1776 31.9693 34.0183ZM36.2917 34.0183H39.7951C39.7528 35.1776 39.5449 36.1825 39.2336 37.0321C38.3723 36.743 37.3931 36.5521 36.2917 36.5122V34.0183ZM40.6189 34.0183H43.6823C43.5951 35.7045 42.9779 37.2436 41.9898 38.4782C41.4281 38.0548 40.7564 37.6485 39.971 37.3121C40.3296 36.3715 40.5739 35.2771 40.6189 34.0183ZM35.4727 37.3329V40.9194C34.848 40.4875 33.6781 39.5138 32.8507 37.7856C33.6173 37.5355 34.4896 37.3706 35.4727 37.3329ZM36.2917 37.3329C37.2748 37.3706 38.147 37.5355 38.9136 37.7856C38.0863 39.5138 36.9164 40.4875 36.2917 40.9194V37.3329ZM32.1261 38.0559C32.8785 39.6118 33.9023 40.6893 34.6632 41.3241C32.9722 41.0595 31.4647 40.2524 30.3168 39.0909C30.8235 38.7138 31.4245 38.3549 32.1261 38.0559ZM39.6383 38.0559C40.3399 38.3549 40.9408 38.7138 41.4476 39.0909C40.2996 40.2524 38.7922 41.0595 37.1012 41.3241C37.862 40.6893 38.8859 39.6118 39.6383 38.0559Z" fill="url(#paint1_linear_10025_1209)"/>
</g>
<rect x="0.863281" y="1.46875" width="47" height="47" rx="10.5" stroke="#7CEEC5"/>
<defs>
<filter id="filter0_f_10025_1209" x="-3.61719" y="-4.78418" width="16.8203" height="26.7178" filterUnits="userSpaceOnUse" color-interpolation-filters="sRGB">
<feFlood flood-opacity="0" result="BackgroundImageFix"/>
<feBlend mode="normal" in="SourceGraphic" in2="BackgroundImageFix" result="shape"/>
<feGaussianBlur stdDeviation="1" result="effect1_foregroundBlur_10025_1209"/>
</filter>
<linearGradient id="paint0_linear_10025_1209" x1="-2.96245" y1="-8.36682" x2="39.5801" y2="-3.06375" gradientUnits="userSpaceOnUse">
<stop offset="0.00972591" stop-color="#44C3F9"/>
<stop offset="1" stop-color="#27E4A0"/>
</linearGradient>
<linearGradient id="paint1_linear_10025_1209" x1="25.9561" y1="23.8557" x2="48.4551" y2="29.1212" gradientUnits="userSpaceOnUse">
<stop offset="0.00972591" stop-color="#44C3F9"/>
<stop offset="1" stop-color="#27E4A0"/>
</linearGradient>
<clipPath id="clip0_10025_1209">
<rect x="0.363281" y="0.96875" width="48" height="48" rx="11" fill="white"/>
</clipPath>
</defs>
</svg>
