<svg width="52" height="51" viewBox="0 0 52 51" fill="none" xmlns="http://www.w3.org/2000/svg">
<rect x="0.855469" y="0.117188" width="50.1797" height="50.1797" rx="6" fill="url(#paint0_linear_9668_557)"/>
<path d="M25.9453 10.9697C18.7266 10.9697 12.8203 16.7072 12.8203 23.7197V26.9072C12.8203 29.8822 15.2266 32.2197 18.2891 32.2197C18.9453 32.2197 19.3828 31.7947 19.3828 31.1572V22.6572C19.3828 22.0197 18.9453 21.5947 18.2891 21.5947C17.0859 21.5947 15.9922 22.0197 15.1172 22.6572C15.6641 17.3447 20.3672 13.0947 25.9453 13.0947C31.5234 13.0947 36.2266 17.2385 36.7734 22.6572C35.8984 22.0197 34.8047 21.5947 33.6016 21.5947C32.9453 21.5947 32.5078 22.0197 32.5078 22.6572V31.1572C32.5078 31.7947 32.9453 32.2197 33.6016 32.2197C34.2578 32.2197 35.0234 32.1135 35.5703 31.7947C34.3672 33.9197 32.5078 35.6197 30.2109 36.576C29.9922 35.301 28.8984 34.2385 27.4766 34.2385C26.0547 34.2385 24.8516 35.4072 24.8516 36.7885C24.8516 37.5322 25.1797 38.276 25.8359 38.8072C26.3828 39.2322 26.9297 39.4447 27.5859 39.4447C27.6953 39.4447 27.9141 39.4447 28.0234 39.4447C34.2578 38.5947 39.0703 33.176 39.0703 26.9072V23.7197C39.0703 16.7072 33.1641 10.9697 25.9453 10.9697Z" fill="white"/>
<defs>
<linearGradient id="paint0_linear_9668_557" x1="-2.87921" y1="-3.11496" x2="62.4559" y2="12.1755" gradientUnits="userSpaceOnUse">
<stop offset="0.00972591" stop-color="#44C3F9"/>
<stop offset="1" stop-color="#27E4A0"/>
</linearGradient>
</defs>
</svg>
