<svg width="51" height="51" viewBox="0 0 51 51" fill="none" xmlns="http://www.w3.org/2000/svg">
<rect x="0.046875" y="0.709961" width="50.1797" height="50.1797" rx="6" fill="url(#paint0_linear_9191_2459)"/>
<path d="M25.043 12.0176C21.3765 12.0176 18.3678 15.0158 18.3678 18.6823C18.3678 22.3488 21.3765 25.3574 25.043 25.3574C28.7094 25.3574 31.7051 22.3488 31.7051 18.6823C31.7051 15.0158 28.7094 12.0176 25.043 12.0176ZM19.7065 26.6857C15.7035 26.6857 11.7031 29.3526 11.7031 33.3478V36.3116C11.9572 37.9788 13.0366 38.6868 14.3727 38.6842H35.7029C37.0389 38.6869 37.921 37.5715 38.3698 36.3116V33.3478C38.3725 28.0191 34.372 26.6857 30.3664 26.6857H19.7065Z" fill="white"/>
<defs>
<linearGradient id="paint0_linear_9191_2459" x1="-3.68781" y1="-2.52219" x2="61.6473" y2="12.7683" gradientUnits="userSpaceOnUse">
<stop offset="0.00972591" stop-color="#44C3F9"/>
<stop offset="1" stop-color="#27E4A0"/>
</linearGradient>
</defs>
</svg>
