<svg width="51" height="51" viewBox="0 0 51 51" fill="none" xmlns="http://www.w3.org/2000/svg">
<rect x="0.808594" y="0.117188" width="50.1797" height="50.1797" rx="6" fill="url(#paint0_linear_9668_100)"/>
<g clip-path="url(#clip0_9668_100)">
<path d="M34.2969 13.8828H17.2969C16.3714 13.8919 15.4865 14.2636 14.8321 14.918C14.1777 15.5724 13.806 16.4574 13.7969 17.3828V30.3828C13.8321 31.3398 14.1717 32.2606 14.7663 33.0113C15.3608 33.7619 16.1794 34.3034 17.1029 34.5568L28.2619 37.1778C28.6866 37.2878 29.1305 37.3009 29.561 37.2163C29.9915 37.1316 30.3974 36.9514 30.7489 36.6888C31.0887 36.4106 31.36 36.0579 31.5418 35.658C31.7235 35.2581 31.8108 34.8218 31.7969 34.3828V24.6908C31.7953 23.7608 31.4896 22.8568 30.9265 22.1166C30.3634 21.3764 29.5738 20.8406 28.6779 20.5908L17.8529 17.6058C17.7579 17.5795 17.6691 17.5348 17.5914 17.4742C17.5138 17.4136 17.4488 17.3383 17.4002 17.2526C17.3517 17.1669 17.3204 17.0725 17.3084 16.9747C17.2963 16.8769 17.3036 16.7778 17.3299 16.6828C17.3561 16.5879 17.4008 16.499 17.4614 16.4214C17.522 16.3437 17.5973 16.2787 17.6831 16.2302C17.7688 16.1816 17.8632 16.1504 17.961 16.1383C18.0587 16.1262 18.1579 16.1335 18.2529 16.1598L21.7869 17.1348H21.7989H34.2969C34.4958 17.1348 34.6866 17.2138 34.8272 17.3545C34.9679 17.4951 35.0469 17.6859 35.0469 17.8848C35.0469 18.0837 34.9679 18.2745 34.8272 18.4151C34.6866 18.5558 34.4958 18.6348 34.2969 18.6348H29.0619C29.0013 18.6347 28.9428 18.6565 28.8972 18.6963C28.8515 18.7361 28.8218 18.791 28.8136 18.851C28.8055 18.911 28.8193 18.9719 28.8526 19.0224C28.886 19.073 28.9365 19.1097 28.9949 19.1258L29.0809 19.1498C30.2201 19.4662 31.2332 20.1279 31.9809 21.0438C32.0046 21.0722 32.0343 21.0951 32.0678 21.1108C32.1013 21.1265 32.1379 21.1347 32.1749 21.1348H34.2969C34.4958 21.1348 34.6866 21.2138 34.8272 21.3545C34.9679 21.4951 35.0469 21.6859 35.0469 21.8848C35.0469 22.0837 34.9679 22.2745 34.8272 22.4151C34.6866 22.5558 34.4958 22.6348 34.2969 22.6348H33.2589C33.2194 22.6346 33.1803 22.6437 33.1451 22.6616C33.1098 22.6794 33.0793 22.7053 33.056 22.7373C33.0328 22.7692 33.0174 22.8063 33.0113 22.8453C33.0052 22.8843 33.0085 22.9243 33.0209 22.9618C33.2047 23.5205 33.2995 24.1046 33.3019 24.6928V31.6348C33.3019 31.7011 33.3282 31.7647 33.3751 31.8116C33.422 31.8585 33.4856 31.8848 33.5519 31.8848H34.2969C35.2251 31.8848 36.1154 31.5161 36.7717 30.8597C37.4281 30.2033 37.7969 29.3131 37.7969 28.3848V17.3848C37.7971 16.925 37.7068 16.4697 37.531 16.0448C37.3553 15.6199 37.0975 15.2339 36.7725 14.9086C36.4474 14.5834 36.0615 14.3254 35.6367 14.1494C35.212 13.9734 34.7567 13.8828 34.2969 13.8828ZM29.2969 28.8828C29.2969 29.2784 29.1796 29.6651 28.9598 29.994C28.7401 30.3228 28.4277 30.5792 28.0622 30.7306C27.6968 30.8819 27.2947 30.9216 26.9067 30.8444C26.5187 30.7672 26.1624 30.5767 25.8827 30.297C25.603 30.0173 25.4125 29.661 25.3353 29.273C25.2581 28.885 25.2977 28.4829 25.4491 28.1174C25.6005 27.752 25.8568 27.4396 26.1857 27.2199C26.5146 27.0001 26.9013 26.8828 27.2969 26.8828C27.8273 26.8828 28.336 27.0935 28.7111 27.4686C29.0862 27.8437 29.2969 28.3524 29.2969 28.8828Z" fill="white"/>
</g>
<defs>
<linearGradient id="paint0_linear_9668_100" x1="-2.92609" y1="-3.11496" x2="62.409" y2="12.1755" gradientUnits="userSpaceOnUse">
<stop offset="0.00972591" stop-color="#44C3F9"/>
<stop offset="1" stop-color="#27E4A0"/>
</linearGradient>
<clipPath id="clip0_9668_100">
<rect width="24" height="24" fill="white" transform="translate(13.7969 13.5781)"/>
</clipPath>
</defs>
</svg>
