<svg width="52" height="51" viewBox="0 0 52 51" fill="none" xmlns="http://www.w3.org/2000/svg">
<rect x="0.832031" y="0.117188" width="50.1797" height="50.1797" rx="6" fill="url(#paint0_linear_9668_1208)"/>
<g clip-path="url(#clip0_9668_1208)">
<path d="M25.9868 12.4834C25.9868 12.4834 20.977 16.9955 15.192 17.0924H14.8594V27.8353C14.8594 28.2914 14.965 29.0638 14.9655 29.0654C15.27 30.5973 16.6788 34.4886 23.1382 38.3139V25.5544H19.7533L25.9803 17.0269L32.2073 25.5544H28.823V38.1373C34.9422 34.4231 36.3554 30.6812 36.6815 29.1326C36.7481 28.8184 36.7823 28.1056 36.7823 28.1056V17.0924C30.9972 16.9949 25.9868 12.4834 25.9868 12.4834Z" fill="white"/>
</g>
<defs>
<linearGradient id="paint0_linear_9668_1208" x1="-2.90265" y1="-3.11496" x2="62.4325" y2="12.1755" gradientUnits="userSpaceOnUse">
<stop offset="0.00972591" stop-color="#44C3F9"/>
<stop offset="1" stop-color="#27E4A0"/>
</linearGradient>
<clipPath id="clip0_9668_1208">
<rect width="26" height="26" fill="white" transform="translate(12.8203 12.3984)"/>
</clipPath>
</defs>
</svg>
