<svg width="51" height="51" viewBox="0 0 51 51" fill="none" xmlns="http://www.w3.org/2000/svg">
<rect x="0.0234375" y="0.709961" width="50.1797" height="50.1797" rx="6" fill="url(#paint0_linear_9191_2446)"/>
<g clip-path="url(#clip0_9191_2446)">
<path d="M33.6367 19.9287H32.1992V17.0537C32.1992 13.0862 28.9792 9.86621 25.0117 9.86621C21.0442 9.86621 17.8242 13.0862 17.8242 17.0537V19.9287H16.3867C14.7983 19.9287 13.5117 21.2153 13.5117 22.8037V37.1787C13.5117 38.7671 14.7983 40.0537 16.3867 40.0537H33.6367C35.2252 40.0537 36.5117 38.7671 36.5117 37.1787V22.8037C36.5117 21.2153 35.2252 19.9287 33.6367 19.9287ZM25.0117 32.8662C23.4233 32.8662 22.1367 31.5796 22.1367 29.9912C22.1367 28.4028 23.4233 27.1162 25.0117 27.1162C26.6002 27.1162 27.8867 28.4028 27.8867 29.9912C27.8867 31.5796 26.6002 32.8662 25.0117 32.8662ZM29.468 19.9287H20.5555V17.0537C20.5555 14.5956 22.5536 12.5975 25.0117 12.5975C27.4698 12.5975 29.468 14.5956 29.468 17.0537V19.9287Z" fill="white"/>
</g>
<defs>
<linearGradient id="paint0_linear_9191_2446" x1="-3.71124" y1="-2.52219" x2="61.6239" y2="12.7683" gradientUnits="userSpaceOnUse">
<stop offset="0.00972591" stop-color="#44C3F9"/>
<stop offset="1" stop-color="#27E4A0"/>
</linearGradient>
<clipPath id="clip0_9191_2446">
<rect width="48" height="48" fill="white" transform="translate(1.01172 1.70996)"/>
</clipPath>
</defs>
</svg>
