<svg width="51" height="51" viewBox="0 0 51 51" fill="none" xmlns="http://www.w3.org/2000/svg">
<rect y="0.709961" width="50.1797" height="50.1797" rx="6" fill="url(#paint0_linear_9191_2439)"/>
<path d="M25.5 14.1611C18.7693 14.1611 13.3125 19.7999 13.3125 26.7549C13.3125 33.7099 18.7693 39.3486 25.5 39.3486C32.2307 39.3486 37.6875 33.7099 37.6875 26.7549C37.6875 19.7999 32.2307 14.1611 25.5 14.1611ZM31.125 28.6924H25.5C25.2514 28.6924 25.0129 28.5903 24.8371 28.4086C24.6613 28.227 24.5625 27.9806 24.5625 27.7236V19.0049C24.5625 18.748 24.6613 18.5015 24.8371 18.3199C25.0129 18.1382 25.2514 18.0361 25.5 18.0361C25.7486 18.0361 25.9871 18.1382 26.1629 18.3199C26.3387 18.5015 26.4375 18.748 26.4375 19.0049V26.7549H31.125C31.3736 26.7549 31.6121 26.8569 31.7879 27.0386C31.9637 27.2203 32.0625 27.4667 32.0625 27.7236C32.0625 27.9806 31.9637 28.227 31.7879 28.4086C31.6121 28.5903 31.3736 28.6924 31.125 28.6924Z" fill="white"/>
<defs>
<linearGradient id="paint0_linear_9191_2439" x1="-3.73468" y1="-2.52219" x2="61.6005" y2="12.7683" gradientUnits="userSpaceOnUse">
<stop offset="0.00972591" stop-color="#44C3F9"/>
<stop offset="1" stop-color="#27E4A0"/>
</linearGradient>
</defs>
</svg>
