<svg width="21" height="21" viewBox="0 0 21 21" fill="none" xmlns="http://www.w3.org/2000/svg">
<g clip-path="url(#clip0_9046_5857)">
<path d="M0.992188 0.630859V20.6309H20.9922V0.630859H0.992188ZM17.2422 12.4559C17.2422 12.7969 17.1749 13.1347 17.0441 13.4497C16.9134 13.7647 16.7217 14.0509 16.4802 14.2917C16.2387 14.5325 15.952 14.7233 15.6366 14.8532C15.3212 14.983 14.9833 15.0493 14.6422 15.0484H7.34219C7.0011 15.0493 6.66318 14.983 6.34778 14.8532C6.03237 14.7233 5.74569 14.5325 5.50416 14.2917C5.26263 14.0509 5.071 13.7647 4.94024 13.4497C4.80949 13.1347 4.74219 12.7969 4.74219 12.4559V8.80586C4.74219 8.46478 4.80949 8.12704 4.94024 7.81202C5.071 7.49699 5.26263 7.21086 5.50416 6.97003C5.74569 6.72919 6.03237 6.53839 6.34778 6.40855C6.66318 6.2787 7.0011 6.21237 7.34219 6.21336H14.6422C14.9833 6.21237 15.3212 6.2787 15.6366 6.40855C15.952 6.53839 16.2387 6.72919 16.4802 6.97003C16.7217 7.21086 16.9134 7.49699 17.0441 7.81202C17.1749 8.12704 17.2422 8.46478 17.2422 8.80586V12.4559Z" fill="#777E90"/>
<path d="M12.8923 10.5639L9.47734 8.83143C9.45638 8.82073 9.43302 8.8156 9.4095 8.81651C9.38599 8.81742 9.3631 8.82436 9.34303 8.83665C9.32296 8.84895 9.30638 8.86618 9.29488 8.88672C9.28338 8.90725 9.27734 8.9304 9.27734 8.95393V12.3139C9.27774 12.3368 9.28383 12.3592 9.29507 12.3791C9.3063 12.399 9.32232 12.4158 9.34168 12.428C9.36104 12.4401 9.38313 12.4473 9.40594 12.4488C9.42875 12.4502 9.45158 12.446 9.47234 12.4364L12.8873 10.8089C12.9102 10.7979 12.9295 10.7807 12.9432 10.7594C12.9569 10.738 12.9644 10.7133 12.9649 10.688C12.9654 10.6626 12.9589 10.6376 12.9461 10.6157C12.9333 10.5938 12.9147 10.5759 12.8923 10.5639V10.5639Z" fill="#777E90"/>
</g>
<defs>
<clipPath id="clip0_9046_5857">
<rect x="0.992188" y="0.630859" width="20" height="20" rx="6" fill="white"/>
</clipPath>
</defs>
</svg>
