<svg width="20" height="20" viewBox="0 0 20 20" fill="none" xmlns="http://www.w3.org/2000/svg">
<path fill-rule="evenodd" clip-rule="evenodd" d="M3.5 0H16.5C18.433 0 20 1.567 20 3.5V16.5C20 18.433 18.433 20 16.5 20H3.5C1.567 20 0 18.433 0 16.5V3.5C0 1.567 1.567 0 3.5 0ZM16.0002 6.29733C14.0736 6.17132 12.9656 4.9868 12.7347 3V3.0042H10.422V11.3672C10.7704 15.8323 6.5815 15.156 6.25831 12.871C6.09042 11.6781 6.69483 11.0018 7.76093 10.6406C8.1177 10.5188 8.50805 10.4263 8.87321 10.3675V8.0111C4.07993 8.18332 3.16492 12.4803 4.65915 14.9292C6.98444 18.7348 12.7683 17.0756 12.7683 11.7663V7.58686C13.9057 8.27573 14.8837 8.64116 16.0002 8.53195V6.29733Z" fill="#777E90"/>
</svg>
