<svg width="21" height="20" viewBox="0 0 21 20" fill="none" xmlns="http://www.w3.org/2000/svg">
<path d="M16.6992 0H3.69922C1.76622 0 0.199219 1.567 0.199219 3.5V16.5C0.199219 18.433 1.76622 20 3.69922 20H16.6992C18.6322 20 20.1992 18.433 20.1992 16.5V3.5C20.1992 1.567 18.6322 0 16.6992 0Z" fill="#777E90"/>
<path d="M5.82969 7.35547H3.00781V17.5805H5.82969V7.35547Z" fill="white"/>
<path d="M15.2625 7.35598C13.1813 6.56223 11.675 7.90598 11.0312 8.65598V7.35598H8.21875V17.581H11.0312V12.1872C11.0152 11.5036 11.2651 10.8404 11.7281 10.3372C11.8603 10.1816 12.0232 10.055 12.2065 9.96518C12.3899 9.87539 12.5898 9.82438 12.7937 9.81535C13.0219 9.81097 13.2485 9.85273 13.4601 9.93811C13.6717 10.0235 13.8638 10.1507 14.025 10.3122C14.3745 10.6775 14.5655 11.1661 14.5562 11.6716V17.581H17.7312V11.2497C17.7312 11.2497 18.0844 8.41223 15.2625 7.35598Z" fill="white"/>
<path d="M4.41875 5.94297C5.39215 5.94297 6.18125 5.15387 6.18125 4.18047C6.18125 3.20707 5.39215 2.41797 4.41875 2.41797C3.44535 2.41797 2.65625 3.20707 2.65625 4.18047C2.65625 5.15387 3.44535 5.94297 4.41875 5.94297Z" fill="white"/>
</svg>
