<svg width="21" height="20" viewBox="0 0 21 20" fill="none" xmlns="http://www.w3.org/2000/svg">
<g clip-path="url(#clip0_9046_5854)">
<path d="M16.6992 0H3.69922C1.76622 0 0.199219 1.567 0.199219 3.5V16.5C0.199219 18.433 1.76622 20 3.69922 20H16.6992C18.6322 20 20.1992 18.433 20.1992 16.5V3.5C20.1992 1.567 18.6322 0 16.6992 0Z" fill="#777E90"/>
<path d="M17.1992 9.25H14.0742V6.875C14.0742 6.29375 14.743 6.25 14.9492 6.25H17.0742V3H14.9492C12.5961 3 10.8242 4.66562 10.8242 6.875V9.25H8.19922V12.5H10.8242V20H14.0742V12.5H16.6992L17.1992 9.25Z" fill="white"/>
</g>
<defs>
<clipPath id="clip0_9046_5854">
<rect width="20" height="20" fill="white" transform="translate(0.199219)"/>
</clipPath>
</defs>
</svg>
