
<svg width="886" height="372" viewBox="0 0 886 372" fill="none" xmlns="http://www.w3.org/2000/svg">
<path d="M501.717 156.624C499.214 168.313 495.878 180.003 493.376 191.693C481.701 240.957 470.86 289.383 459.186 338.648C458.351 343.657 455.851 345.327 450.845 345.327C440.004 345.327 428.33 345.327 417.488 346.163C412.485 346.163 409.982 344.491 409.15 339.482C396.64 282.704 383.296 226.761 369.955 169.983C368.287 164.139 366.619 157.459 364.951 151.614C364.951 214.237 364.951 276.025 364.951 337.812C364.951 345.327 363.284 346.997 355.778 346.163C339.098 345.327 322.421 346.163 305.741 346.163C301.573 346.163 299.903 345.327 299.903 340.318C299.903 266.84 299.903 192.528 299.903 119.05C299.903 94.0012 319.918 74.7969 344.936 74.7969C362.449 74.7969 380.796 74.7969 398.308 74.7969C405.814 74.7969 408.314 76.4667 409.982 83.9815C416.656 119.05 424.994 154.119 431.665 189.188C431.665 190.023 432.5 190.858 432.5 192.528C435.835 190.858 435.835 188.353 435.835 185.848C443.341 151.614 450.845 116.545 457.518 82.3114C458.351 77.3018 460.854 75.6318 465.857 75.6318C483.369 75.6318 500.881 75.6318 518.394 75.6318C547.582 75.6318 566.762 94.8361 566.762 123.225C566.762 180.838 566.762 238.451 566.762 296.065C566.762 310.259 566.762 325.287 566.762 339.482C566.762 345.327 565.93 346.997 559.257 346.997C542.579 346.163 525.067 346.997 508.387 346.997C502.549 346.997 501.717 345.327 501.717 340.318C501.717 281.87 502.549 223.422 502.549 164.974C502.549 162.469 502.549 159.964 502.549 157.459C502.549 156.624 501.717 156.624 501.717 156.624Z" fill="url(#paint0_linear_2567_1187)"/>
<path d="M126.439 343.657C98.0846 343.657 69.7309 343.657 41.3773 343.657C23.8647 343.657 12.1896 335.308 7.18603 318.608C4.68423 310.259 3.01637 301.074 0.514577 291.889C-1.15329 286.043 1.34848 285.21 6.35208 285.21C37.2077 285.21 68.0632 285.21 99.7526 285.21C127.272 285.21 154.792 285.21 182.312 285.21C196.489 285.21 202.326 280.2 203.16 266.006C203.994 252.645 202.326 243.46 191.485 240.121C188.149 239.286 185.648 239.286 183.146 239.286C139.781 239.286 97.2507 239.286 53.8864 239.286C29.7022 239.286 14.6914 229.266 8.01994 205.887C-1.98724 174.158 -1.98723 142.429 7.18603 110.701C13.8575 85.6515 29.7022 74.7969 55.5541 74.7969C112.262 74.7969 168.135 74.7969 224.842 74.7969C246.525 74.7969 262.37 89.8262 264.038 111.536C265.705 134.08 265.705 134.08 243.19 134.08C190.651 134.08 138.947 134.08 86.4096 134.08C70.565 134.08 65.5614 139.09 65.5614 154.119C64.7275 172.488 69.7309 177.498 88.0776 177.498C127.272 177.498 165.633 178.333 204.828 177.498C239.019 176.663 257.367 188.353 264.038 225.926C269.041 253.481 269.041 281.034 260.702 307.753C253.196 333.639 238.185 344.491 211.5 344.491C182.312 344.491 153.958 344.491 126.439 343.657Z" fill="url(#paint1_linear_2567_1187)"/>
<path d="M687.367 75.6313C724.088 75.6313 760.812 75.6313 798.369 75.6313C811.721 75.6313 825.074 75.6313 838.429 75.6313C865.136 75.6313 884.331 94.8689 886 120.798C886 126.653 886 132.508 886 137.526C886 142.545 884.331 143.381 880.157 143.381C859.293 143.381 838.429 143.381 818.398 143.381C811.721 143.381 810.052 145.054 810.052 151.745C810.052 214.477 810.052 277.209 810.052 339.939C810.052 346.632 809.217 348.305 801.707 348.305C765.819 348.305 729.931 348.305 694.878 348.305C692.374 348.305 689.871 348.305 686.531 348.305C687.367 345.795 686.531 343.287 687.367 340.776C703.224 340.776 719.081 340.776 734.938 340.776C739.945 340.776 740.781 339.104 740.781 334.086C740.781 252.951 739.945 172.656 741.614 91.5231C741.614 86.5045 739.945 85.6682 734.938 85.6682C719.081 85.6682 703.224 85.6682 687.367 85.6682C687.367 81.4862 687.367 78.1405 687.367 75.6313Z" fill="url(#paint2_linear_2567_1187)"/>
<path d="M687.37 339.106C685.701 341.614 686.537 344.124 686.537 346.634C664.003 354.16 640.634 362.526 618.098 370.89C613.091 372.562 612.258 371.725 612.258 366.707C612.258 311.503 613.091 257.137 613.091 201.933C613.091 170.149 613.927 138.365 613.927 106.581C613.927 100.726 615.596 98.2165 620.603 96.5438C643.136 89.016 665.672 81.4881 687.37 74.7969C687.37 78.1425 687.37 80.6518 687.37 83.9974C687.37 117.454 687.37 150.075 687.37 183.531C687.37 236.226 687.37 288.083 687.37 339.106ZM655.656 212.806C655.656 205.278 650.648 200.26 642.303 200.26C633.122 200.26 625.61 206.115 625.61 214.479C625.61 221.17 631.453 227.025 639.798 227.025C648.146 227.025 654.822 221.17 655.656 212.806Z" fill="url(#paint3_linear_2567_1187)"/>
<path d="M645.726 64.0017C626.539 64.0017 612.357 52.2932 611.521 35.5671C610.688 19.6774 625.704 2.9512 644.058 0.442271C661.577 -2.06665 676.594 6.29641 682.432 20.5136C689.108 39.7487 673.255 61.4928 650.731 64.0017C648.23 64.0017 646.562 64.0017 645.726 64.0017Z" fill="#FF2828"/>
<defs>
<linearGradient id="paint0_linear_2567_1187" x1="59.4232" y1="166.041" x2="540.033" y2="311.131" gradientUnits="userSpaceOnUse">
<stop stop-color="#066DD5"/>
<stop offset="1" stop-color="#10E349"/>
</linearGradient>
<linearGradient id="paint1_linear_2567_1187" x1="59.4232" y1="166.041" x2="540.033" y2="311.131" gradientUnits="userSpaceOnUse">
<stop stop-color="#066DD5"/>
<stop offset="1" stop-color="#10E349"/>
</linearGradient>
<linearGradient id="paint2_linear_2567_1187" x1="595" y1="124.5" x2="840.007" y2="358.493" gradientUnits="userSpaceOnUse">
<stop stop-color="#FF423A"/>
<stop offset="1" stop-color="#FCC400"/>
<stop offset="1" stop-color="#FFE815"/>
</linearGradient>
<linearGradient id="paint3_linear_2567_1187" x1="595" y1="124.5" x2="840.007" y2="358.493" gradientUnits="userSpaceOnUse">
<stop stop-color="#FF423A"/>
<stop offset="1" stop-color="#FCC400"/>
<stop offset="1" stop-color="#FFE815"/>
</linearGradient>
</defs>
</svg>
