<svg width="41" height="41" viewBox="0 0 41 41" fill="none" xmlns="http://www.w3.org/2000/svg">
<rect x="0.398438" y="0.861328" width="40" height="40" rx="20" fill="url(#paint0_linear_10162_2928)"/>
<g clip-path="url(#clip0_10162_2928)">
<g clip-path="url(#clip1_10162_2928)">
<path d="M25.0586 18.8396C23.9098 19.4901 22.4028 20.2008 20.617 20.7283C20.2476 20.8221 19.993 20.7733 19.8711 20.7327C18.0722 19.9808 16.8188 19.3801 15.7095 18.7464C15.7019 18.7426 15.6976 18.741 15.6894 18.7366C15.0031 18.358 14.9961 18.7366 14.9961 18.7366V23.1231C14.9961 23.7216 15.4814 24.2064 16.0794 24.2064H24.3891C24.9871 24.2064 25.4725 23.7216 25.4725 23.1231V18.8396C25.4725 18.5893 25.0586 18.8396 25.0586 18.8396Z" fill="white"/>
<path d="M20.3984 7.85938C13.2186 7.85938 7.39844 13.6796 7.39844 20.8594C7.39844 28.0386 13.2186 33.8594 20.3984 33.8594C27.5782 33.8594 33.3984 28.0386 33.3984 20.8594C33.3984 13.6796 27.5782 7.85938 20.3984 7.85938ZM27.5539 24.8807C27.5539 25.4787 27.0685 25.964 26.4705 25.964H14.3264C13.7284 25.964 13.243 25.4787 13.243 24.8807V16.838C13.243 16.24 13.7284 15.7547 14.3264 15.7547H26.4705C27.0685 15.7547 27.5539 16.24 27.5539 16.838V24.8807Z" fill="white"/>
</g>
</g>
<defs>
<linearGradient id="paint0_linear_10162_2928" x1="-2.57861" y1="-1.71513" x2="49.5023" y2="10.4735" gradientUnits="userSpaceOnUse">
<stop offset="0.00972591" stop-color="#44C3F9"/>
<stop offset="1" stop-color="#27E4A0"/>
</linearGradient>
<clipPath id="clip0_10162_2928">
<rect x="1.1875" y="1.65625" width="38.2625" height="38.2625" rx="19.1312" fill="white"/>
</clipPath>
<clipPath id="clip1_10162_2928">
<rect width="26" height="26" fill="white" transform="translate(7.39844 7.85938)"/>
</clipPath>
</defs>
</svg>
