<svg width="41" height="41" viewBox="0 0 41 41" fill="none" xmlns="http://www.w3.org/2000/svg">
<rect x="0.398438" y="0.310547" width="40" height="40" rx="20" fill="url(#paint0_linear_10162_2849)"/>
<g clip-path="url(#clip0_10162_2849)">
<path fill-rule="evenodd" clip-rule="evenodd" d="M30.2323 13.1566V23.1638C30.2323 23.1638 30.2025 23.8121 30.1429 24.0967C29.805 25.7095 28.178 29.9356 20.3389 33.7454C20.3384 33.749 20.3379 33.7526 20.3369 33.7562C20.3348 33.7549 20.3328 33.7539 20.3307 33.753C20.3297 33.7526 20.3287 33.7521 20.3276 33.7516C20.3268 33.7519 20.326 33.7523 20.3252 33.7526C20.3226 33.7537 20.3202 33.7546 20.3179 33.7562C20.3176 33.7541 20.3171 33.752 20.3166 33.7498C20.3163 33.7483 20.316 33.7469 20.3158 33.7454C12.3796 29.8881 10.8091 25.6031 10.4985 24.0368C10.498 24.0348 10.4023 23.3332 10.4023 22.9184V13.1566H10.7027C15.9355 13.0683 20.4675 8.96875 20.4675 8.96875C20.4675 8.96875 24.9995 13.0683 30.2323 13.1566ZM21.0148 18.0767L22.208 16.9425H22.2013C20.5641 16.535 18.8287 16.6694 17.2835 17.3232C15.7382 17.9769 14.4762 19.1108 13.707 20.5364C14.2194 21.4858 14.9609 22.3142 15.8508 22.9514L17.7115 21.1991C17.5887 20.7668 17.5886 20.3116 17.7111 19.8792C17.8335 19.4469 18.0743 19.0527 18.4091 18.7362C18.744 18.4197 19.161 18.1921 19.6184 18.0764C20.0758 17.9606 20.5574 17.9607 21.0148 18.0767ZM24.7736 18.1241C24.7723 18.1231 24.771 18.1222 24.7698 18.1213H24.7765L24.7736 18.1241ZM26.927 20.5364C26.4087 19.5883 25.6685 18.7609 24.7736 18.1241L22.9159 19.8737C23.0386 20.3059 23.0387 20.7611 22.9162 21.1935C22.7938 21.6258 22.553 22.0201 22.2182 22.3365C21.8834 22.653 21.4663 22.8806 21.0089 22.9963C20.5515 23.1121 20.0699 23.112 19.6125 22.996L18.4193 24.1302C20.0584 24.5409 21.7969 24.4082 23.345 23.7542C24.8931 23.1002 26.1574 21.9645 26.927 20.5364ZM25.0529 16.0058C24.7994 15.7662 24.403 15.7662 24.1495 16.0058L15.5744 24.1111C15.2999 24.3706 15.2999 24.8074 15.5744 25.0669C15.8279 25.3065 16.2243 25.3065 16.4778 25.0669L25.0529 16.9616C25.3274 16.7021 25.3274 16.2653 25.0529 16.0058Z" fill="white"/>
</g>
<defs>
<linearGradient id="paint0_linear_10162_2849" x1="-2.57861" y1="-2.26591" x2="49.5023" y2="9.92269" gradientUnits="userSpaceOnUse">
<stop offset="0.00972591" stop-color="#44C3F9"/>
<stop offset="1" stop-color="#27E4A0"/>
</linearGradient>
<clipPath id="clip0_10162_2849">
<rect x="1.1875" y="1.10547" width="38.2625" height="38.2625" rx="19.1312" fill="white"/>
</clipPath>
</defs>
</svg>
