<svg width="41" height="41" viewBox="0 0 41 41" fill="none" xmlns="http://www.w3.org/2000/svg">
<rect x="0.164062" y="0.861328" width="40" height="40" rx="20" fill="url(#paint0_linear_10162_2917)"/>
<g clip-path="url(#clip0_10162_2917)">
<path d="M30.3751 15.6439C30.6102 15.409 30.6804 15.0557 30.5532 14.7487C30.4262 14.4418 30.1267 14.2416 29.7944 14.2416L26.7822 14.2416V11.2297C26.7822 10.8974 26.5821 10.5979 26.2752 10.4708C25.9683 10.3436 25.615 10.4139 25.38 10.6488L22.642 13.387C22.4879 13.5411 22.4014 13.75 22.4014 13.9678L22.4015 17.0736L20.2308 19.2443C20.0497 19.196 19.8596 19.1702 19.6633 19.1702C18.4535 19.1702 17.4728 20.1509 17.4728 21.3607C17.4728 22.5705 18.4535 23.5511 19.6633 23.5511C20.8731 23.5511 21.8538 22.5705 21.8538 21.3607C21.8538 21.1644 21.8279 20.9743 21.7796 20.7933L23.9503 18.6226H27.0562C27.2741 18.6226 27.483 18.536 27.6371 18.382L30.3751 15.6439ZM19.6633 10.4083C20.9805 10.4083 22.2433 10.6408 23.413 11.067L21.8675 12.6125C21.7989 12.6812 21.7359 12.7545 21.6791 12.8317C21.0319 12.6794 20.357 12.5988 19.6633 12.5988C14.8242 12.5988 10.9014 16.5216 10.9014 21.3607C10.9014 26.1997 14.8242 30.1226 19.6633 30.1226C24.5024 30.1226 28.4252 26.1997 28.4252 21.3607C28.4252 20.6669 28.3446 19.992 28.1923 19.3449C28.2695 19.288 28.3429 19.2252 28.4116 19.1564L29.957 17.611C30.3832 18.7807 30.6157 20.0435 30.6157 21.3607C30.6157 27.4094 25.7121 32.313 19.6633 32.313C13.6145 32.313 8.71094 27.4094 8.71094 21.3607C8.71094 15.3118 13.6145 10.4083 19.6633 10.4083ZM19.6633 14.7892C20.2307 14.7892 20.7811 14.8611 21.3062 14.9963L21.3063 16.6199L20.8525 17.0737C20.8345 17.0917 20.8168 17.11 20.7995 17.1285C20.4372 17.0314 20.0563 16.9797 19.6633 16.9797C17.2438 16.9797 15.2824 18.9411 15.2824 21.3607C15.2824 23.7801 17.2438 25.7416 19.6633 25.7416C22.0828 25.7416 24.0443 23.7801 24.0443 21.3607C24.0443 20.9677 23.9926 20.5868 23.8955 20.2245C23.914 20.2072 23.9322 20.1895 23.9503 20.1714L24.4039 19.7178H26.0278C26.1628 20.2429 26.2348 20.7934 26.2348 21.3607C26.2348 24.9899 23.2926 27.9321 19.6633 27.9321C16.034 27.9321 13.0919 24.9899 13.0919 21.3607C13.0919 17.7313 16.034 14.7892 19.6633 14.7892Z" fill="white"/>
</g>
<defs>
<linearGradient id="paint0_linear_10162_2917" x1="-2.81298" y1="-1.71513" x2="49.268" y2="10.4735" gradientUnits="userSpaceOnUse">
<stop offset="0.00972591" stop-color="#44C3F9"/>
<stop offset="1" stop-color="#27E4A0"/>
</linearGradient>
<clipPath id="clip0_10162_2917">
<rect width="23" height="23" fill="white" transform="translate(8.16406 9.86133)"/>
</clipPath>
</defs>
</svg>
