<svg width="400" height="583" viewBox="0 0 400 583" fill="none" xmlns="http://www.w3.org/2000/svg">
<g clip-path="url(#clip0_9572_9377)">
<rect y="0.998047" width="400" height="582" rx="20" fill="url(#paint0_linear_9572_9377)"/>
<g opacity="0.9">
<g opacity="0.4">
<g filter="url(#filter0_d_9572_9377)">
<path d="M195.825 441.389C199.526 439.103 205.573 439.091 209.299 441.361L422.613 571.323C426.303 573.571 426.324 577.212 422.659 579.476L204.631 714.139C200.93 716.425 194.883 716.438 191.157 714.167L-22.1566 584.205C-25.8468 581.957 -25.8673 578.316 -22.2024 576.052L195.825 441.389Z" fill="white"/>
</g>
</g>
<g filter="url(#filter1_d_9572_9377)">
<path d="M207.438 449.618C203.549 447.372 197.244 447.372 193.355 449.618V487.019C197.244 484.774 203.549 484.774 207.438 487.019L301.793 541.495L207.438 595.971C203.549 598.216 197.244 598.216 193.355 595.971V623.4C197.244 625.646 203.549 625.646 207.438 623.4L327.142 554.289L327.142 518.729L207.438 449.618Z" fill="url(#paint1_linear_9572_9377)"/>
<path d="M207.438 449.618C203.549 447.372 197.244 447.372 193.355 449.618V487.019C197.244 484.774 203.549 484.774 207.438 487.019L301.793 541.495L207.438 595.971C203.549 598.216 197.244 598.216 193.355 595.971V623.4C197.244 625.646 203.549 625.646 207.438 623.4L327.142 554.289L327.142 518.729L207.438 449.618Z" fill="url(#paint2_linear_9572_9377)"/>
<path d="M207.438 449.618C203.549 447.372 197.244 447.372 193.355 449.618V487.019C197.244 484.774 203.549 484.774 207.438 487.019L301.793 541.495L207.438 595.971C203.549 598.216 197.244 598.216 193.355 595.971V623.4C197.244 625.646 203.549 625.646 207.438 623.4L327.142 554.289L327.142 518.729L207.438 449.618Z" fill="url(#paint3_linear_9572_9377)"/>
<path d="M193.355 449.618L73.651 518.729C71.7064 519.852 70.7341 521.323 70.7344 522.795V550.223C70.7346 551.694 71.7068 553.167 73.6508 554.289L193.355 623.4V595.971L99 541.495L193.355 487.019V449.618Z" fill="url(#paint4_linear_9572_9377)"/>
<path d="M193.355 449.618L73.651 518.729C71.7064 519.852 70.7341 521.323 70.7344 522.795V550.223C70.7346 551.694 71.7068 553.167 73.6508 554.289L193.355 623.4V595.971L99 541.495L193.355 487.019V449.618Z" fill="url(#paint5_linear_9572_9377)"/>
<path d="M193.355 449.618L73.651 518.729C71.7064 519.852 70.7341 521.323 70.7344 522.795V550.223C70.7346 551.694 71.7068 553.167 73.6508 554.289L193.355 623.4V595.971L99 541.495L193.355 487.019V449.618Z" fill="url(#paint6_linear_9572_9377)"/>
<path d="M327.142 518.729C329.086 519.851 330.059 521.322 330.059 522.794V550.223C330.059 551.695 329.087 553.166 327.142 554.289L327.142 518.729Z" fill="url(#paint7_linear_9572_9377)"/>
<path d="M327.142 518.729C329.086 519.851 330.059 521.322 330.059 522.794V550.223C330.059 551.695 329.087 553.166 327.142 554.289L327.142 518.729Z" fill="url(#paint8_linear_9572_9377)"/>
<path d="M327.142 518.729C329.086 519.851 330.059 521.322 330.059 522.794V550.223C330.059 551.695 329.087 553.166 327.142 554.289L327.142 518.729Z" fill="url(#paint9_linear_9572_9377)"/>
<path d="M198.792 446.48C199.677 445.969 201.112 445.969 201.997 446.48L332.579 521.872C333.464 522.383 333.464 523.211 332.579 523.722L201.997 599.114C201.112 599.625 199.677 599.625 198.792 599.114L68.2096 523.722C67.3247 523.211 67.3247 522.383 68.2096 521.872L198.792 446.48Z" fill="#4CC6FA"/>
<path d="M207.438 402.803C203.549 400.558 197.244 400.558 193.355 402.803V440.204C197.244 437.959 203.549 437.959 207.438 440.204L301.793 494.68L207.438 549.156C203.549 551.402 197.244 551.402 193.355 549.156V576.586C197.244 578.831 203.549 578.831 207.438 576.586L327.142 507.475L327.142 471.914L207.438 402.803Z" fill="url(#paint10_linear_9572_9377)"/>
<path d="M193.355 402.803L73.651 471.914C71.7064 473.037 70.7341 474.509 70.7344 475.98V503.409C70.7346 504.88 71.7068 506.352 73.6508 507.475L193.355 576.586V549.156L99 494.68L193.355 440.204V402.803Z" fill="url(#paint11_linear_9572_9377)"/>
<path d="M327.142 471.914C329.086 473.037 330.059 474.508 330.059 475.979V503.409C330.059 504.88 329.087 506.352 327.142 507.475L327.142 471.914Z" fill="url(#paint12_linear_9572_9377)"/>
<rect width="154.484" height="154.484" rx="3.84634" transform="matrix(0.866025 0.5 -0.866025 0.5 200.395 398.74)" fill="#E1F6FF"/>
</g>
</g>
<path opacity="0.7" d="M70.7398 -35.1133H331.325L331.321 476.609L203.833 551.271C201.654 552.547 198.957 552.55 196.775 551.28L68.8516 476.833L70.7398 -35.1133Z" fill="url(#paint13_linear_9572_9377)"/>
<path fill-rule="evenodd" clip-rule="evenodd" d="M283.607 483.835C293.25 478.267 293.556 469.418 284.291 464.069L223.307 428.859C214.042 423.51 198.714 423.687 189.071 429.255L125.597 465.901C115.954 471.468 115.648 480.318 124.913 485.667L185.897 520.876C195.162 526.226 210.49 526.049 220.133 520.481L283.607 483.835ZM188.894 484.487C180.469 489.351 180.201 497.109 188.295 501.782C191.334 503.537 195.126 504.611 199.123 505.01L198.825 513.598C198.803 514.24 199.234 514.818 199.949 515.231C200.665 515.645 201.666 515.893 202.779 515.88C205.01 515.855 206.849 514.793 206.894 513.505L207.191 504.917C211.219 504.425 215.088 503.262 218.251 501.436C226.676 496.572 226.945 488.814 218.85 484.141C210.756 479.468 197.318 479.623 188.894 484.487ZM203.311 500.515C203.439 500.514 203.565 500.516 203.689 500.521C206.922 500.431 210.15 499.657 212.659 498.208C217.874 495.197 218.041 490.394 213.03 487.501C208.02 484.608 199.701 484.705 194.486 487.715C189.271 490.726 189.105 495.529 194.115 498.422C196.526 499.814 199.703 500.514 202.932 500.53C203.057 500.522 203.183 500.517 203.311 500.515ZM213.173 442.22L245.326 460.784C249.576 463.238 249.436 467.29 245.012 469.843L225.34 481.201C225.146 481.055 224.894 480.91 224.67 480.781C213.487 474.324 194.942 474.538 183.302 481.258C178.675 483.93 175.852 487.206 174.821 490.643L152.062 477.503C147.812 475.049 147.952 470.997 152.376 468.443L197.481 442.402C201.905 439.848 208.923 439.767 213.173 442.22ZM226.499 471.71C224.027 473.137 220.604 472.963 217.571 471.212C215.06 469.763 214.494 468.231 215.391 467.149C215.535 466.969 215.73 466.798 215.967 466.661C216.668 466.256 217.596 466.255 218.254 466.635C218.776 466.936 218.911 467.257 218.653 467.756C218.084 468.542 218.598 469.345 219.761 470.016C221.126 470.804 222.736 470.944 223.666 470.408C224.499 469.927 224.399 469.322 223.199 468.255L222.173 467.358C220.246 465.669 220.269 464.284 222.154 463.196C224.469 461.859 227.941 462.092 230.646 463.654C232.87 464.938 233.573 466.468 232.464 467.731C232.348 467.866 232.197 467.992 231.969 468.124C231.338 468.488 230.47 468.483 229.821 468.109C229.248 467.778 229.131 467.437 229.388 466.958C229.94 466.172 229.551 465.492 228.506 464.889C227.251 464.164 225.803 464.037 224.873 464.574C224.093 465.024 224.192 465.638 225.335 466.642L226.343 467.539C228.386 469.336 228.42 470.601 226.499 471.71ZM190.67 455.63C191.344 456.02 192.074 456.036 193.152 455.686L195.765 454.917L200.154 457.451L198.795 458.975C198.199 459.582 198.236 459.999 198.952 460.412C199.693 460.84 200.741 460.848 201.469 460.428C201.732 460.276 201.927 460.115 202.151 459.849L208.233 452.485C208.905 451.679 208.771 451.075 207.777 450.501C206.817 449.947 205.745 449.875 204.365 450.263L191.637 453.779C191.202 453.903 190.845 454.041 190.626 454.167C189.863 454.608 189.878 455.173 190.67 455.63ZM198.373 454.053L205.131 451.971L205.19 452.005L201.617 455.926L198.373 454.053ZM202.868 462.481L206.238 464.426C209.886 466.533 214.394 466.411 218.41 464.092C222.426 461.774 222.54 459.227 218.892 457.121L215.522 455.175C214.722 454.713 213.741 454.734 212.873 455.235L202.982 460.946C202.105 461.452 202.068 462.018 202.868 462.481ZM206.333 461.949L214.611 457.17L216.405 458.206C218.646 459.5 218.455 461.07 215.806 462.599C213.07 464.179 210.402 464.299 208.127 462.986L206.333 461.949ZM182.253 459.219C182.941 458.821 184.036 458.809 184.698 459.191L201.953 469.153C202.615 469.535 202.593 470.167 201.904 470.565C201.215 470.962 200.12 470.975 199.459 470.593L182.204 460.631C181.542 460.249 181.564 459.617 182.253 459.219ZM177.215 463.511C176.553 463.129 175.458 463.142 174.77 463.539C174.081 463.937 174.059 464.569 174.721 464.951L186.943 472.008C187.605 472.39 188.7 472.377 189.389 471.979C190.077 471.582 190.099 470.95 189.437 470.568L177.215 463.511ZM167.287 467.86C167.975 467.462 169.07 467.449 169.732 467.831L181.954 474.888C182.616 475.27 182.594 475.902 181.905 476.3C181.217 476.697 180.122 476.71 179.46 476.328L167.238 469.271C166.576 468.889 166.598 468.257 167.287 467.86Z" fill="url(#paint14_linear_9572_9377)"/>
<g filter="url(#filter2_d_9572_9377)">
<rect width="81.9297" height="81.9297" rx="40.9648" transform="matrix(0.866025 0.5 -0.866025 0.5 150.934 300.174)" fill="white"/>
<g clip-path="url(#clip1_9572_9377)">
<g clip-path="url(#clip2_9572_9377)">
<path d="M159.475 328.833C156.919 330.423 153.821 331.691 150.377 332.559C146.932 333.426 143.215 333.874 139.457 333.874C135.699 333.874 131.982 333.426 128.537 332.559C125.093 331.691 121.995 330.423 119.439 328.833C122.193 330.309 124.39 332.097 125.892 334.086C127.395 336.075 128.17 338.221 128.17 340.39C128.17 342.56 127.395 344.706 125.892 346.695C124.39 348.684 122.193 350.472 119.439 351.948C121.995 350.358 125.093 349.089 128.537 348.222C131.982 347.355 135.699 346.907 139.457 346.907C143.215 346.907 146.932 347.354 150.377 348.222C153.821 349.089 156.919 350.358 159.475 351.948C156.721 350.472 154.524 348.684 153.022 346.695C151.519 344.706 150.744 342.56 150.744 340.39C150.744 338.221 151.519 336.074 153.022 334.086C154.524 332.097 156.721 330.309 159.475 328.833Z" fill="url(#paint15_linear_9572_9377)"/>
<path d="M188.915 335.307C187.576 336.14 185.954 336.804 184.151 337.258C182.347 337.712 180.401 337.946 178.434 337.946C176.466 337.946 174.52 337.712 172.716 337.258C170.913 336.804 169.291 336.14 167.953 335.307C169.395 336.08 170.545 337.016 171.331 338.057C172.118 339.099 172.524 340.222 172.524 341.358C172.524 342.494 172.118 343.618 171.331 344.659C170.545 345.7 169.395 346.637 167.953 347.41C169.291 346.577 170.913 345.913 172.716 345.459C174.52 345.005 176.466 344.77 178.434 344.77C180.401 344.77 182.347 345.005 184.151 345.459C185.954 345.913 187.576 346.577 188.915 347.41C187.473 346.637 186.322 345.7 185.536 344.659C184.749 343.618 184.343 342.494 184.343 341.358C184.343 340.222 184.749 339.099 185.536 338.057C186.322 337.016 187.473 336.08 188.915 335.307Z" fill="url(#paint16_linear_9572_9377)"/>
</g>
</g>
</g>
<g filter="url(#filter3_d_9572_9377)">
<rect width="57.1073" height="57.1073" rx="28.5536" transform="matrix(0.866025 0.5 -0.866025 0.5 143.355 209.559)" fill="white"/>
<g clip-path="url(#clip3_9572_9377)">
<path d="M162.43 241.677C163.011 241.677 163.534 241.475 163.757 241.165C163.979 240.855 163.856 240.499 163.445 240.261L159.721 238.111L163.445 235.961C163.856 235.724 163.979 235.367 163.756 235.057C163.534 234.748 163.01 234.545 162.429 234.545L155.659 234.546C155.278 234.546 154.912 234.633 154.643 234.788L150.803 237.006L145.435 237.006C145.271 236.842 145.068 236.688 144.825 236.548C143.33 235.684 140.905 235.684 139.409 236.548C137.913 237.411 137.913 238.811 139.409 239.675C140.905 240.538 143.33 240.538 144.825 239.675C145.068 239.535 145.271 239.381 145.435 239.217L150.803 239.217L154.643 241.434C154.912 241.589 155.278 241.677 155.659 241.677L162.43 241.677ZM155.659 230.293C157.287 231.233 158.561 232.301 159.48 233.44L155.659 233.44C155.489 233.44 155.32 233.447 155.155 233.462C154.543 232.891 153.808 232.352 152.95 231.857C146.967 228.402 137.267 228.402 131.284 231.857C125.301 235.311 125.301 240.911 131.284 244.366C137.267 247.82 146.967 247.82 152.95 244.366C153.808 243.871 154.543 243.331 155.155 242.761C155.32 242.775 155.489 242.783 155.659 242.783L159.48 242.783C158.561 243.922 157.287 244.989 155.659 245.929C148.18 250.247 136.054 250.247 128.576 245.929C121.097 241.611 121.097 234.611 128.575 230.293C136.054 225.975 148.18 225.975 155.659 230.293ZM150.242 233.42C150.944 233.825 151.535 234.269 152.017 234.741L150.01 235.9L148.888 235.9C148.843 235.9 148.799 235.9 148.755 235.901C148.427 235.573 148.02 235.264 147.534 234.984C144.542 233.257 139.692 233.257 136.7 234.984C133.709 236.711 133.709 239.511 136.7 241.238C139.692 242.966 144.542 242.966 147.534 241.238C148.02 240.958 148.427 240.649 148.755 240.321C148.799 240.322 148.843 240.322 148.888 240.322L150.01 240.322L152.017 241.482C151.535 241.953 150.943 242.397 150.242 242.802C145.755 245.393 138.479 245.393 133.992 242.802C129.505 240.211 129.505 236.011 133.992 233.42C138.479 230.829 145.755 230.829 150.242 233.42Z" fill="url(#paint17_linear_9572_9377)"/>
</g>
</g>
<g filter="url(#filter4_d_9572_9377)">
<rect width="27.9337" height="27.9337" rx="13.9669" transform="matrix(0.866025 0.5 -0.866025 0.5 205.734 111.039)" fill="white"/>
<g clip-path="url(#clip4_9572_9377)">
<path fill-rule="evenodd" clip-rule="evenodd" d="M216.003 125.941L209.951 129.435C209.951 129.435 209.541 129.651 209.333 129.73C208.153 130.175 204.613 131.082 197.568 129.676C197.565 129.677 197.563 129.678 197.56 129.679C197.56 129.677 197.558 129.675 197.557 129.674C197.557 129.674 197.556 129.673 197.555 129.673C197.553 129.673 197.551 129.672 197.549 129.672C197.55 129.671 197.55 129.671 197.551 129.67C197.552 129.669 197.553 129.668 197.554 129.667C195.087 125.55 196.729 123.505 197.488 122.85C197.489 122.849 197.856 122.57 198.106 122.426L204.01 119.017L204.192 119.122C207.41 120.918 212.63 121.069 212.63 121.069C212.63 121.069 212.892 124.083 216.003 125.941ZM207.452 124.439L208.86 124.46L208.855 124.458C208.112 123.744 206.981 123.185 205.651 122.873C204.321 122.562 202.872 122.517 201.545 122.747C201.28 123.257 201.228 123.805 201.381 124.338L203.566 124.376C203.753 124.182 204.028 124.023 204.364 123.915C204.699 123.807 205.083 123.754 205.477 123.76C205.871 123.766 206.261 123.832 206.608 123.952C206.954 124.071 207.245 124.239 207.452 124.439ZM209.697 125.768C209.696 125.768 209.696 125.767 209.696 125.766L209.7 125.769L209.697 125.768ZM209.54 127.363C209.8 126.851 209.853 126.303 209.697 125.768L207.515 125.731C207.328 125.924 207.052 126.083 206.717 126.192C206.381 126.3 205.997 126.353 205.603 126.347C205.21 126.341 204.82 126.274 204.473 126.155C204.126 126.036 203.835 125.868 203.629 125.668L202.221 125.647C202.964 126.363 204.096 126.923 205.428 127.236C206.759 127.548 208.211 127.593 209.54 127.363ZM211.147 125.126C211.138 124.954 210.898 124.816 210.6 124.811L200.512 124.647C200.189 124.642 199.925 124.794 199.934 124.981C199.943 125.153 200.182 125.291 200.48 125.296L210.569 125.46C210.891 125.465 211.156 125.313 211.147 125.126Z" fill="url(#paint18_linear_9572_9377)"/>
</g>
</g>
<g filter="url(#filter5_d_9572_9377)">
<rect width="35.7652" height="35.7652" rx="17.8826" transform="matrix(0.866025 0.5 -0.866025 0.5 212.523 163.285)" fill="white"/>
<g clip-path="url(#clip5_9572_9377)">
<g clip-path="url(#clip6_9572_9377)">
<path d="M225.233 180.693L213.715 174.043C213.082 173.685 212.231 173.484 211.344 173.484C210.457 173.484 209.606 173.685 208.972 174.043L200.164 179.128C199.54 179.516 199.146 180.009 199.04 180.536C198.934 181.062 199.122 181.594 199.576 182.054L205.361 187.445C205.574 187.654 205.866 187.833 206.215 187.968C206.564 188.103 206.961 188.192 207.377 188.226C207.796 188.251 208.219 188.219 208.613 188.133C209.007 188.048 209.362 187.911 209.65 187.734L216.217 183.943C216.846 183.579 217.251 183.105 217.371 182.596C217.491 182.086 217.319 181.567 216.881 181.119L211.569 175.717C211.523 175.669 211.493 175.617 211.481 175.563C211.47 175.509 211.477 175.454 211.502 175.402C211.527 175.349 211.57 175.3 211.628 175.257C211.686 175.214 211.758 175.178 211.84 175.151C211.923 175.124 212.013 175.107 212.107 175.1C212.2 175.094 212.295 175.098 212.386 175.112C212.477 175.127 212.562 175.152 212.637 175.185C212.711 175.219 212.774 175.26 212.82 175.308L214.554 177.071L214.562 177.076L223.03 181.965C223.165 182.043 223.241 182.148 223.241 182.259C223.241 182.369 223.165 182.474 223.03 182.552C222.895 182.63 222.713 182.673 222.522 182.674C222.331 182.673 222.149 182.63 222.014 182.552L218.467 180.504C218.426 180.48 218.371 180.466 218.314 180.464C218.256 180.461 218.198 180.471 218.152 180.492C218.106 180.512 218.074 180.541 218.062 180.574C218.051 180.607 218.06 180.641 218.089 180.67L218.131 180.713C218.688 181.282 218.926 181.938 218.812 182.588C218.809 182.609 218.814 182.629 218.826 182.649C218.838 182.668 218.857 182.685 218.882 182.7L220.32 183.53C220.455 183.608 220.53 183.713 220.53 183.823C220.53 183.933 220.455 184.039 220.32 184.117C220.185 184.194 220.002 184.238 219.812 184.238C219.621 184.238 219.438 184.195 219.304 184.117L218.6 183.711C218.574 183.695 218.541 183.683 218.505 183.677C218.469 183.67 218.431 183.668 218.393 183.671C218.356 183.675 218.321 183.683 218.29 183.696C218.259 183.709 218.235 183.726 218.217 183.745C217.963 184.036 217.632 184.302 217.235 184.533L212.531 187.248C212.487 187.274 212.461 187.309 212.461 187.346C212.461 187.383 212.487 187.418 212.531 187.444L213.036 187.735C213.665 188.098 214.518 188.302 215.408 188.302C216.297 188.302 217.15 188.098 217.779 187.735L225.232 183.432C225.544 183.252 225.791 183.039 225.96 182.804C226.129 182.569 226.216 182.317 226.216 182.063C226.216 181.808 226.129 181.556 225.961 181.321C225.792 181.086 225.545 180.873 225.233 180.693ZM211.683 184.605C211.415 184.76 211.073 184.865 210.701 184.908C210.33 184.95 209.944 184.928 209.594 184.845C209.244 184.761 208.945 184.619 208.734 184.437C208.523 184.255 208.411 184.041 208.411 183.823C208.411 183.604 208.523 183.39 208.734 183.208C208.945 183.026 209.244 182.884 209.594 182.8C209.944 182.717 210.33 182.695 210.701 182.737C211.073 182.78 211.415 182.885 211.683 183.04C212.042 183.248 212.244 183.529 212.244 183.823C212.244 184.116 212.042 184.397 211.683 184.605Z" fill="url(#paint19_linear_9572_9377)"/>
</g>
</g>
</g>
<g filter="url(#filter6_d_9572_9377)">
<rect width="69.939" height="69.939" rx="34.9695" transform="matrix(0.866025 0.5 -0.866025 0.5 257.25 260.646)" fill="white"/>
<g clip-path="url(#clip7_9572_9377)">
<path d="M255.61 292.772L242.568 285.243C251.678 280.93 265.147 281.231 273.654 286.142C282.714 291.373 282.714 299.853 273.654 305.084C264.594 310.315 249.906 310.315 240.846 305.084C232.34 300.173 231.82 292.397 239.288 287.137L252.329 294.666L247.408 297.507L262.171 298.454L260.531 289.931L255.61 292.772Z" fill="url(#paint20_linear_9572_9377)"/>
</g>
</g>
</g>
<defs>
<filter id="filter0_d_9572_9377" x="-48.9375" y="436.666" width="498.332" height="324.195" filterUnits="userSpaceOnUse" color-interpolation-filters="sRGB">
<feFlood flood-opacity="0" result="BackgroundImageFix"/>
<feColorMatrix in="SourceAlpha" type="matrix" values="0 0 0 0 0 0 0 0 0 0 0 0 0 0 0 0 0 0 127 0" result="hardAlpha"/>
<feOffset dy="21"/>
<feGaussianBlur stdDeviation="12"/>
<feComposite in2="hardAlpha" operator="out"/>
<feColorMatrix type="matrix" values="0 0 0 0 0 0 0 0 0 0 0 0 0 0 0 0 0 0 0.17 0"/>
<feBlend mode="normal" in2="BackgroundImageFix" result="effect1_dropShadow_9572_9377"/>
<feBlend mode="normal" in="SourceGraphic" in2="effect1_dropShadow_9572_9377" result="shape"/>
</filter>
<filter id="filter1_d_9572_9377" x="54.8289" y="396.233" width="291.131" height="250.653" filterUnits="userSpaceOnUse" color-interpolation-filters="sRGB">
<feFlood flood-opacity="0" result="BackgroundImageFix"/>
<feColorMatrix in="SourceAlpha" type="matrix" values="0 0 0 0 0 0 0 0 0 0 0 0 0 0 0 0 0 0 127 0" result="hardAlpha"/>
<feOffset dy="9.0843"/>
<feGaussianBlur stdDeviation="6.35901"/>
<feComposite in2="hardAlpha" operator="out"/>
<feColorMatrix type="matrix" values="0 0 0 0 0.195833 0 0 0 0 0.5175 0 0 0 0 1 0 0 0 0.4 0"/>
<feBlend mode="normal" in2="BackgroundImageFix" result="effect1_dropShadow_9572_9377"/>
<feBlend mode="normal" in="SourceGraphic" in2="effect1_dropShadow_9572_9377" result="shape"/>
</filter>
<filter id="filter2_d_9572_9377" x="51.043" y="289.795" width="199.742" height="142.371" filterUnits="userSpaceOnUse" color-interpolation-filters="sRGB">
<feFlood flood-opacity="0" result="BackgroundImageFix"/>
<feColorMatrix in="SourceAlpha" type="matrix" values="0 0 0 0 0 0 0 0 0 0 0 0 0 0 0 0 0 0 127 0" result="hardAlpha"/>
<feOffset dy="20"/>
<feGaussianBlur stdDeviation="16"/>
<feComposite in2="hardAlpha" operator="out"/>
<feColorMatrix type="matrix" values="0 0 0 0 0 0 0 0 0 0 0 0 0 0 0 0 0 0 0.05 0"/>
<feBlend mode="normal" in2="BackgroundImageFix" result="effect1_dropShadow_9572_9377"/>
<feBlend mode="normal" in="SourceGraphic" in2="effect1_dropShadow_9572_9377" result="shape"/>
</filter>
<filter id="filter3_d_9572_9377" x="76.3828" y="205.922" width="133.945" height="104.381" filterUnits="userSpaceOnUse" color-interpolation-filters="sRGB">
<feFlood flood-opacity="0" result="BackgroundImageFix"/>
<feColorMatrix in="SourceAlpha" type="matrix" values="0 0 0 0 0 0 0 0 0 0 0 0 0 0 0 0 0 0 127 0" result="hardAlpha"/>
<feOffset dy="20"/>
<feGaussianBlur stdDeviation="16"/>
<feComposite in2="hardAlpha" operator="out"/>
<feColorMatrix type="matrix" values="0 0 0 0 0 0 0 0 0 0 0 0 0 0 0 0 0 0 0.05 0"/>
<feBlend mode="normal" in2="BackgroundImageFix" result="effect1_dropShadow_9572_9377"/>
<feBlend mode="normal" in="SourceGraphic" in2="effect1_dropShadow_9572_9377" result="shape"/>
</filter>
<filter id="filter4_d_9572_9377" x="150.586" y="99.5898" width="110.281" height="90.7207" filterUnits="userSpaceOnUse" color-interpolation-filters="sRGB">
<feFlood flood-opacity="0" result="BackgroundImageFix"/>
<feColorMatrix in="SourceAlpha" type="matrix" values="0 0 0 0 0 0 0 0 0 0 0 0 0 0 0 0 0 0 127 0" result="hardAlpha"/>
<feOffset dy="20"/>
<feGaussianBlur stdDeviation="16"/>
<feComposite in2="hardAlpha" operator="out"/>
<feColorMatrix type="matrix" values="0 0 0 0 0 0 0 0 0 0 0 0 0 0 0 0 0 0 0.05 0"/>
<feBlend mode="normal" in2="BackgroundImageFix" result="effect1_dropShadow_9572_9377"/>
<feBlend mode="normal" in="SourceGraphic" in2="effect1_dropShadow_9572_9377" result="shape"/>
</filter>
<filter id="filter5_d_9572_9377" x="150.887" y="151.992" width="123.258" height="98.2109" filterUnits="userSpaceOnUse" color-interpolation-filters="sRGB">
<feFlood flood-opacity="0" result="BackgroundImageFix"/>
<feColorMatrix in="SourceAlpha" type="matrix" values="0 0 0 0 0 0 0 0 0 0 0 0 0 0 0 0 0 0 127 0" result="hardAlpha"/>
<feOffset dy="20"/>
<feGaussianBlur stdDeviation="16"/>
<feComposite in2="hardAlpha" operator="out"/>
<feColorMatrix type="matrix" values="0 0 0 0 0 0 0 0 0 0 0 0 0 0 0 0 0 0 0.05 0"/>
<feBlend mode="normal" in2="BackgroundImageFix" result="effect1_dropShadow_9572_9377"/>
<feBlend mode="normal" in="SourceGraphic" in2="effect1_dropShadow_9572_9377" result="shape"/>
</filter>
<filter id="filter6_d_9572_9377" x="167.293" y="250.027" width="179.875" height="130.9" filterUnits="userSpaceOnUse" color-interpolation-filters="sRGB">
<feFlood flood-opacity="0" result="BackgroundImageFix"/>
<feColorMatrix in="SourceAlpha" type="matrix" values="0 0 0 0 0 0 0 0 0 0 0 0 0 0 0 0 0 0 127 0" result="hardAlpha"/>
<feOffset dy="20"/>
<feGaussianBlur stdDeviation="16"/>
<feComposite in2="hardAlpha" operator="out"/>
<feColorMatrix type="matrix" values="0 0 0 0 0 0 0 0 0 0 0 0 0 0 0 0 0 0 0.05 0"/>
<feBlend mode="normal" in2="BackgroundImageFix" result="effect1_dropShadow_9572_9377"/>
<feBlend mode="normal" in="SourceGraphic" in2="effect1_dropShadow_9572_9377" result="shape"/>
</filter>
<linearGradient id="paint0_linear_9572_9377" x1="-29.7705" y1="-36.4894" x2="505.71" y2="49.6409" gradientUnits="userSpaceOnUse">
<stop offset="0.00972591" stop-color="#44C3F9"/>
<stop offset="1" stop-color="#27E4A0"/>
</linearGradient>
<linearGradient id="paint1_linear_9572_9377" x1="73.114" y1="548.813" x2="330.045" y2="541.495" gradientUnits="userSpaceOnUse">
<stop stop-color="#66A3FF"/>
<stop offset="0.45844" stop-color="#0066FF"/>
<stop offset="0.504978" stop-color="#66A3FF"/>
<stop offset="1" stop-color="#BECDFF"/>
</linearGradient>
<linearGradient id="paint2_linear_9572_9377" x1="73.114" y1="548.813" x2="330.045" y2="541.495" gradientUnits="userSpaceOnUse">
<stop stop-color="#A7CAFF"/>
<stop offset="0.45844" stop-color="#77D4FC"/>
<stop offset="0.504978" stop-color="#26ADE8"/>
<stop offset="1" stop-color="#1296CF"/>
</linearGradient>
<linearGradient id="paint3_linear_9572_9377" x1="73.114" y1="548.813" x2="330.045" y2="541.495" gradientUnits="userSpaceOnUse">
<stop stop-color="#4CF0FA"/>
<stop offset="0.45844" stop-color="#77D4FC"/>
<stop offset="0.504978" stop-color="#26ADE8"/>
<stop offset="1" stop-color="#1296CF"/>
</linearGradient>
<linearGradient id="paint4_linear_9572_9377" x1="73.114" y1="548.813" x2="330.045" y2="541.495" gradientUnits="userSpaceOnUse">
<stop stop-color="#66A3FF"/>
<stop offset="0.45844" stop-color="#0066FF"/>
<stop offset="0.504978" stop-color="#66A3FF"/>
<stop offset="1" stop-color="#BECDFF"/>
</linearGradient>
<linearGradient id="paint5_linear_9572_9377" x1="73.114" y1="548.813" x2="330.045" y2="541.495" gradientUnits="userSpaceOnUse">
<stop stop-color="#A7CAFF"/>
<stop offset="0.45844" stop-color="#77D4FC"/>
<stop offset="0.504978" stop-color="#26ADE8"/>
<stop offset="1" stop-color="#1296CF"/>
</linearGradient>
<linearGradient id="paint6_linear_9572_9377" x1="73.114" y1="548.813" x2="330.045" y2="541.495" gradientUnits="userSpaceOnUse">
<stop stop-color="#4CF0FA"/>
<stop offset="0.45844" stop-color="#77D4FC"/>
<stop offset="0.504978" stop-color="#26ADE8"/>
<stop offset="1" stop-color="#1296CF"/>
</linearGradient>
<linearGradient id="paint7_linear_9572_9377" x1="73.114" y1="548.813" x2="330.045" y2="541.495" gradientUnits="userSpaceOnUse">
<stop stop-color="#66A3FF"/>
<stop offset="0.45844" stop-color="#0066FF"/>
<stop offset="0.504978" stop-color="#66A3FF"/>
<stop offset="1" stop-color="#BECDFF"/>
</linearGradient>
<linearGradient id="paint8_linear_9572_9377" x1="73.114" y1="548.813" x2="330.045" y2="541.495" gradientUnits="userSpaceOnUse">
<stop stop-color="#A7CAFF"/>
<stop offset="0.45844" stop-color="#77D4FC"/>
<stop offset="0.504978" stop-color="#26ADE8"/>
<stop offset="1" stop-color="#1296CF"/>
</linearGradient>
<linearGradient id="paint9_linear_9572_9377" x1="73.114" y1="548.813" x2="330.045" y2="541.495" gradientUnits="userSpaceOnUse">
<stop stop-color="#4CF0FA"/>
<stop offset="0.45844" stop-color="#77D4FC"/>
<stop offset="0.504978" stop-color="#26ADE8"/>
<stop offset="1" stop-color="#1296CF"/>
</linearGradient>
<linearGradient id="paint10_linear_9572_9377" x1="73.114" y1="501.998" x2="330.045" y2="494.68" gradientUnits="userSpaceOnUse">
<stop stop-color="#4CF0FA"/>
<stop offset="0.45844" stop-color="#77D4FC"/>
<stop offset="0.504978" stop-color="#26ADE8"/>
<stop offset="1" stop-color="#1296CF"/>
</linearGradient>
<linearGradient id="paint11_linear_9572_9377" x1="73.114" y1="501.998" x2="330.045" y2="494.68" gradientUnits="userSpaceOnUse">
<stop stop-color="#4CF0FA"/>
<stop offset="0.45844" stop-color="#77D4FC"/>
<stop offset="0.504978" stop-color="#26ADE8"/>
<stop offset="1" stop-color="#1296CF"/>
</linearGradient>
<linearGradient id="paint12_linear_9572_9377" x1="73.114" y1="501.998" x2="330.045" y2="494.68" gradientUnits="userSpaceOnUse">
<stop stop-color="#4CF0FA"/>
<stop offset="0.45844" stop-color="#77D4FC"/>
<stop offset="0.504978" stop-color="#26ADE8"/>
<stop offset="1" stop-color="#1296CF"/>
</linearGradient>
<linearGradient id="paint13_linear_9572_9377" x1="200.088" y1="259.313" x2="202.529" y2="515.757" gradientUnits="userSpaceOnUse">
<stop stop-color="white" stop-opacity="0"/>
<stop offset="1" stop-color="white"/>
</linearGradient>
<linearGradient id="paint14_linear_9572_9377" x1="205.833" y1="411.453" x2="245.286" y2="519.431" gradientUnits="userSpaceOnUse">
<stop offset="0.00972591" stop-color="#44C3F9"/>
<stop offset="1" stop-color="#27E4A0"/>
</linearGradient>
<linearGradient id="paint15_linear_9572_9377" x1="139.056" y1="314.066" x2="155.395" y2="359.659" gradientUnits="userSpaceOnUse">
<stop offset="0.00972591" stop-color="#44C3F9"/>
<stop offset="1" stop-color="#27E4A0"/>
</linearGradient>
<linearGradient id="paint16_linear_9572_9377" x1="178.224" y1="327.576" x2="186.778" y2="351.447" gradientUnits="userSpaceOnUse">
<stop offset="0.00972591" stop-color="#44C3F9"/>
<stop offset="1" stop-color="#27E4A0"/>
</linearGradient>
<linearGradient id="paint17_linear_9572_9377" x1="141.846" y1="220.304" x2="152.899" y2="251.146" gradientUnits="userSpaceOnUse">
<stop offset="0.00972591" stop-color="#44C3F9"/>
<stop offset="1" stop-color="#27E4A0"/>
</linearGradient>
<linearGradient id="paint18_linear_9572_9377" x1="206.616" y1="116.482" x2="212.092" y2="130.336" gradientUnits="userSpaceOnUse">
<stop offset="0.00972591" stop-color="#44C3F9"/>
<stop offset="1" stop-color="#27E4A0"/>
</linearGradient>
<linearGradient id="paint19_linear_9572_9377" x1="211.154" y1="171.386" x2="217.692" y2="189.866" gradientUnits="userSpaceOnUse">
<stop offset="0.00972591" stop-color="#44C3F9"/>
<stop offset="1" stop-color="#27E4A0"/>
</linearGradient>
<linearGradient id="paint20_linear_9572_9377" x1="257.01" y1="274.092" x2="270.384" y2="311.368" gradientUnits="userSpaceOnUse">
<stop offset="0.00972591" stop-color="#44C3F9"/>
<stop offset="1" stop-color="#27E4A0"/>
</linearGradient>
<clipPath id="clip0_9572_9377">
<rect y="0.998047" width="400" height="582" rx="20" fill="white"/>
</clipPath>
<clipPath id="clip1_9572_9377">
<rect width="78.3708" height="78.3708" rx="39.1854" transform="matrix(0.866025 0.5 -0.866025 0.5 150.914 301.795)" fill="white"/>
</clipPath>
<clipPath id="clip2_9572_9377">
<rect width="62.0436" height="62.0436" fill="white" transform="matrix(0.866025 0.5 -0.866025 0.5 149.043 309.426)"/>
</clipPath>
<clipPath id="clip3_9572_9377">
<rect width="32.8367" height="32.8367" fill="white" transform="matrix(0.866025 0.5 -0.866025 0.5 142.117 221.693)"/>
</clipPath>
<clipPath id="clip4_9572_9377">
<rect width="26.7204" height="26.7204" rx="13.3602" transform="matrix(0.866025 0.5 -0.866025 0.5 205.727 111.59)" fill="white"/>
</clipPath>
<clipPath id="clip5_9572_9377">
<rect width="34.2117" height="34.2117" rx="17.1058" transform="matrix(0.866025 0.5 -0.866025 0.5 212.516 163.992)" fill="white"/>
</clipPath>
<clipPath id="clip6_9572_9377">
<rect width="18.7767" height="18.7767" fill="white" transform="matrix(0.866025 0.5 -0.866025 0.5 211.551 172.555)"/>
</clipPath>
<clipPath id="clip7_9572_9377">
<rect width="45.4603" height="45.4603" fill="white" transform="matrix(0.866025 0.5 -0.866025 0.5 257.25 272.885)"/>
</clipPath>
</defs>
</svg>
