<svg width="41" height="41" viewBox="0 0 41 41" fill="none" xmlns="http://www.w3.org/2000/svg">
<rect x="0.398438" y="0.759766" width="40" height="40" rx="20" fill="url(#paint0_linear_10119_2835)"/>
<g clip-path="url(#clip0_10119_2835)">
<g clip-path="url(#clip1_10119_2835)">
<path d="M16.8009 12.3418C16.8566 13.8388 16.6028 15.3311 16.0554 16.7255C15.5079 18.1199 14.6787 19.3863 13.6194 20.4456C12.5602 21.5048 11.2937 22.3341 9.89934 22.8815C8.50495 23.429 7.01259 23.6828 5.51562 23.6271C7.01259 23.5714 8.50495 23.8252 9.89934 24.3726C11.2937 24.92 12.5602 25.7493 13.6194 26.8086C14.6787 27.8678 15.5079 29.1342 16.0554 30.5286C16.6028 31.923 16.8566 33.4154 16.8009 34.9123C16.7452 33.4154 16.999 31.923 17.5464 30.5286C18.0939 29.1342 18.9231 27.8678 19.9824 26.8086C21.0416 25.7493 22.308 24.92 23.7024 24.3726C25.0968 23.8252 26.5892 23.5714 28.0861 23.6271C26.5892 23.6828 25.0968 23.429 23.7024 22.8815C22.308 22.3341 21.0416 21.5048 19.9824 20.4456C18.9231 19.3863 18.0939 18.1199 17.5464 16.7255C16.999 15.3311 16.7452 13.8388 16.8009 12.3418Z" fill="white"/>
<path d="M28.2642 7.20312C28.2934 7.98691 28.1605 8.76827 27.8739 9.49835C27.5872 10.2284 27.153 10.8915 26.5984 11.4461C26.0438 12.0007 25.3808 12.4349 24.6507 12.7215C23.9206 13.0081 23.1392 13.141 22.3555 13.1119C23.1392 13.0827 23.9206 13.2156 24.6507 13.5022C25.3808 13.7888 26.0438 14.223 26.5984 14.7776C27.153 15.3322 27.5872 15.9953 27.8739 16.7254C28.1605 17.4554 28.2934 18.2368 28.2642 19.0206C28.235 18.2368 28.3679 17.4554 28.6545 16.7254C28.9412 15.9953 29.3754 15.3322 29.93 14.7776C30.4846 14.223 31.1476 13.7888 31.8777 13.5022C32.6078 13.2156 33.3891 13.0827 34.1729 13.1119C33.3891 13.141 32.6078 13.0081 31.8777 12.7215C31.1476 12.4349 30.4846 12.0007 29.93 11.4461C29.3754 10.8915 28.9412 10.2284 28.6545 9.49834C28.3679 8.76827 28.235 7.9869 28.2642 7.20312Z" fill="white"/>
</g>
</g>
<defs>
<linearGradient id="paint0_linear_10119_2835" x1="-2.57861" y1="-1.81669" x2="49.5023" y2="10.3719" gradientUnits="userSpaceOnUse">
<stop offset="0.00972591" stop-color="#44C3F9"/>
<stop offset="1" stop-color="#27E4A0"/>
</linearGradient>
<clipPath id="clip0_10119_2835">
<rect x="1.1875" y="1.55469" width="38.2625" height="38.2625" rx="19.1312" fill="white"/>
</clipPath>
<clipPath id="clip1_10119_2835">
<rect width="30.2911" height="30.2911" fill="white" transform="translate(4.38672 5.80664)"/>
</clipPath>
</defs>
</svg>
