<svg width="41" height="41" viewBox="0 0 41 41" fill="none" xmlns="http://www.w3.org/2000/svg">
<rect x="0.164062" y="0.759766" width="40" height="40" rx="20" fill="url(#paint0_linear_10162_747)"/>
<g clip-path="url(#clip0_10162_747)">
<path d="M33.0324 22.745C32.8628 22.4526 32.5625 22.2779 32.2291 22.2779H29.9398V15.0602C29.9398 12.4248 27.8225 10.2815 25.22 10.2815H16.4373C16.4323 10.2815 16.4282 10.2841 16.4232 10.2844C16.4019 10.2854 16.3815 10.2913 16.3604 10.2972C16.3424 10.3022 16.3247 10.3062 16.3082 10.3145C16.3028 10.3171 16.2969 10.3169 16.2917 10.32C16.2798 10.3267 16.2726 10.3378 16.262 10.346C16.246 10.3582 16.2307 10.3697 16.2175 10.3849C16.2047 10.3997 16.1955 10.4156 16.1859 10.4324C16.1764 10.4489 16.1674 10.4646 16.1611 10.4828C16.1543 10.5024 16.1518 10.5221 16.1491 10.5426C16.1474 10.5557 16.1415 10.5672 16.1415 10.5807C16.1415 10.5866 16.1445 10.5915 16.1448 10.5973C16.1458 10.6168 16.1513 10.6351 16.1562 10.6543C16.1614 10.6746 16.1659 10.6942 16.175 10.7125C16.1774 10.7174 16.1772 10.7229 16.1799 10.7277L17.8091 13.6447C17.8131 13.6519 17.821 13.6546 17.8255 13.6614C17.8465 13.6929 17.872 13.7189 17.903 13.7403C17.9135 13.7476 17.9222 13.7553 17.9335 13.7611C17.9739 13.7821 18.0179 13.7968 18.0666 13.7968H25.2201C25.902 13.7968 26.4565 14.3633 26.4565 15.0602L26.4613 22.2779H24.2088C23.8689 22.2779 23.5656 22.4567 23.3973 22.7559C23.2302 23.0533 23.2335 23.4068 23.4043 23.6984L27.4149 30.7331C27.577 31.0314 27.8741 31.2128 28.2091 31.2169C28.2132 31.2169 28.2173 31.2169 28.2214 31.2169C28.5581 31.2169 28.8613 31.039 29.035 30.7373L33.0431 23.6951C33.2081 23.3959 33.204 23.0408 33.0324 22.745Z" fill="white"/>
<path d="M24.1484 30.7703L22.5192 27.8524C22.4452 27.7201 22.2894 27.6715 22.1539 27.7262H15.1079C14.4263 27.7262 13.8718 27.1589 13.8718 26.4629V19.2201H16.1191C16.459 19.2201 16.7623 19.0421 16.9306 18.7421C17.0981 18.4446 17.0948 18.0912 16.924 17.7987L12.9134 10.764C12.7509 10.4657 12.4538 10.2852 12.1188 10.2811C11.7715 10.2585 11.469 10.4549 11.2933 10.7598L7.28521 17.8021C7.12018 18.1012 7.12389 18.4572 7.29552 18.753C7.46508 19.0454 7.76543 19.2201 8.0992 19.2201H10.3885V26.4629C10.3885 29.0983 12.5058 31.2424 15.1079 31.2424H23.891C24.0544 31.2424 24.1868 31.1087 24.1868 30.9432C24.1868 30.9347 24.1827 30.9276 24.182 30.9193C24.1825 30.8686 24.1749 30.8175 24.1484 30.7703Z" fill="white"/>
</g>
<defs>
<linearGradient id="paint0_linear_10162_747" x1="-2.81298" y1="-1.81669" x2="49.268" y2="10.3719" gradientUnits="userSpaceOnUse">
<stop offset="0.00972591" stop-color="#44C3F9"/>
<stop offset="1" stop-color="#27E4A0"/>
</linearGradient>
<clipPath id="clip0_10162_747">
<rect width="26" height="26" fill="white" transform="translate(7.16406 7.75977)"/>
</clipPath>
</defs>
</svg>
