<svg width="41" height="41" viewBox="0 0 41 41" fill="none" xmlns="http://www.w3.org/2000/svg">
<rect x="0.164062" y="0.310547" width="40" height="40" rx="20" fill="url(#paint0_linear_10162_2904)"/>
<g clip-path="url(#clip0_10162_2904)">
<g clip-path="url(#clip1_10162_2904)">
<path d="M27.8438 11.5762H12.9688C12.159 11.5842 11.3847 11.9094 10.8121 12.482C10.2394 13.0546 9.91423 13.8289 9.90625 14.6387V26.0137C9.93707 26.851 10.2342 27.6567 10.7545 28.3136C11.2747 28.9704 11.991 29.4441 12.799 29.6658L22.5631 31.9592C22.9347 32.0555 23.3232 32.067 23.6999 31.993C24.0765 31.9188 24.4317 31.7611 24.7393 31.5313C25.0366 31.2879 25.274 30.9794 25.433 30.6294C25.592 30.2796 25.6684 29.8977 25.6562 29.5136V21.0332C25.6548 20.2194 25.3874 19.4284 24.8947 18.7807C24.402 18.133 23.711 17.6642 22.9271 17.4457L13.4553 14.8338C13.3722 14.8108 13.2944 14.7717 13.2265 14.7187C13.1585 14.6657 13.1017 14.5998 13.0592 14.5248C13.0167 14.4498 12.9894 14.3671 12.9788 14.2816C12.9682 14.196 12.9746 14.1093 12.9976 14.0262C13.0206 13.9431 13.0597 13.8654 13.1128 13.7974C13.1658 13.7294 13.2317 13.6726 13.3067 13.6301C13.3817 13.5876 13.4643 13.5603 13.5498 13.5497C13.6354 13.5392 13.7222 13.5456 13.8052 13.5685L16.8975 14.4217H16.908H27.8438C28.0179 14.4217 28.1846 14.4908 28.3078 14.6139C28.4309 14.7369 28.5 14.9039 28.5 15.0779C28.5 15.252 28.4309 15.4189 28.3078 15.542C28.1846 15.665 28.0179 15.7342 27.8438 15.7342H23.2631C23.2102 15.7341 23.1589 15.7532 23.119 15.788C23.079 15.8228 23.0531 15.8709 23.0459 15.9233C23.0388 15.9758 23.0509 16.0291 23.0801 16.0734C23.1092 16.1176 23.1534 16.1497 23.2045 16.1638L23.2798 16.1848C24.2766 16.4616 25.1631 17.0406 25.8173 17.842C25.838 17.8669 25.864 17.8869 25.8933 17.9006C25.9226 17.9144 25.9546 17.9216 25.987 17.9217H27.8438C28.0179 17.9217 28.1846 17.9908 28.3078 18.1139C28.4309 18.2369 28.5 18.4039 28.5 18.5779C28.5 18.752 28.4309 18.9189 28.3078 19.042C28.1846 19.165 28.0179 19.2342 27.8438 19.2342H26.9355C26.9009 19.234 26.8668 19.242 26.8359 19.2576C26.8051 19.2732 26.7784 19.2959 26.758 19.3238C26.7376 19.3518 26.7243 19.3842 26.7189 19.4184C26.7136 19.4525 26.7164 19.4875 26.7273 19.5203C26.8881 20.0092 26.9711 20.5203 26.9731 21.0349V27.1092C26.9731 27.1672 26.9962 27.2228 27.0372 27.2638C27.0782 27.3049 27.1339 27.3279 27.1919 27.3279H27.8438C28.6559 27.3279 29.4349 27.0053 30.0092 26.4309C30.5835 25.8566 30.9062 25.0776 30.9062 24.2654V14.6404C30.9064 14.2381 30.8275 13.8397 30.6737 13.4679C30.5198 13.0962 30.2943 12.7583 30.0099 12.4738C29.7255 12.1892 29.3878 11.9635 29.0161 11.8095C28.6444 11.6554 28.2461 11.5762 27.8438 11.5762ZM23.4688 24.7012C23.4688 25.0473 23.3661 25.3856 23.1738 25.6734C22.9815 25.9612 22.7082 26.1855 22.3884 26.318C22.0687 26.4504 21.7168 26.4851 21.3773 26.4175C21.0379 26.35 20.7261 26.1833 20.4813 25.9386C20.2366 25.6939 20.0699 25.3821 20.0024 25.0426C19.9349 24.7031 19.9695 24.3513 20.102 24.0315C20.2344 23.7117 20.4587 23.4384 20.7465 23.2461C21.0343 23.0538 21.3726 22.9512 21.7188 22.9512C22.1829 22.9512 22.628 23.1355 22.9562 23.4637C23.2844 23.7919 23.4688 24.237 23.4688 24.7012Z" fill="white"/>
</g>
</g>
<defs>
<linearGradient id="paint0_linear_10162_2904" x1="-2.81298" y1="-2.26591" x2="49.268" y2="9.92269" gradientUnits="userSpaceOnUse">
<stop offset="0.00972591" stop-color="#44C3F9"/>
<stop offset="1" stop-color="#27E4A0"/>
</linearGradient>
<clipPath id="clip0_10162_2904">
<rect x="0.953125" y="1.10547" width="38.2625" height="38.2625" rx="19.1312" fill="white"/>
</clipPath>
<clipPath id="clip1_10162_2904">
<rect width="21" height="21" fill="white" transform="translate(9.90625 11.3086)"/>
</clipPath>
</defs>
</svg>
