<svg width="53" height="53" viewBox="0 0 53 53" fill="none" xmlns="http://www.w3.org/2000/svg">
<rect width="52" height="52" rx="8" transform="matrix(1 0 0 -1 0.273438 52.0117)" fill="#E7FAF4"/>
<path d="M17.3478 30.1324C17.3478 30.1324 15.3865 31.6859 15.262 35.9546C15.2591 36.0703 15.2795 36.1854 15.3221 36.2931C15.3647 36.4007 15.4285 36.4987 15.5098 36.5811C15.5911 36.6635 15.6882 36.7287 15.7952 36.7728C15.9023 36.8169 16.0171 36.8389 16.1329 36.8376C20.2628 36.7607 21.955 34.7398 21.955 34.7398C22.5452 34.118 22.8742 33.2934 22.8742 32.4361C22.8742 31.5788 22.5452 30.7542 21.955 30.1324C20.6829 28.86 18.7969 28.9219 17.3478 30.1324Z" fill="url(#paint0_linear_9556_4650)"/>
<path d="M26.4648 31.6534C27.0487 32.4226 27.4054 33.34 27.4947 34.3015C27.5823 35.8054 27.4494 37.314 27.1004 38.7794C27.0727 38.9008 27.0804 39.0276 27.1227 39.1447C27.165 39.2618 27.24 39.3643 27.3389 39.44C27.4378 39.5157 27.5564 39.5614 27.6804 39.5716C27.8045 39.5818 27.929 39.5562 28.0389 39.4977C31.5217 37.6627 34.3975 34.1163 32.5626 29.4902C30.7181 30.6597 28.634 31.399 26.4648 31.6534Z" fill="url(#paint1_linear_9556_4650)"/>
<path d="M17.7845 24.5905C18.7472 24.68 19.6654 25.0377 20.435 25.6229C20.6858 23.4523 21.4253 21.3667 22.5978 19.5229C17.9706 17.6862 14.4241 20.5637 12.5871 24.0467C12.5291 24.1557 12.5037 24.2792 12.5139 24.4022C12.5242 24.5253 12.5697 24.6428 12.645 24.7407C12.72 24.8407 12.8223 24.9169 12.9395 24.9601C13.0567 25.0034 13.184 25.0119 13.3059 24.9847C14.7716 24.636 16.2804 24.5032 17.7845 24.5905Z" fill="url(#paint2_linear_9556_4650)"/>
<path d="M39.1029 13.9645C39.065 13.7195 38.9501 13.493 38.7748 13.3177C38.5995 13.1424 38.3729 13.0275 38.128 12.9897C36.7031 12.7752 35.2547 12.7692 33.8281 12.972C33.9972 14.3164 34.6093 15.5662 35.5678 16.524C36.5263 17.4818 37.7765 18.0931 39.121 18.2613C39.3233 16.8357 39.3172 15.3883 39.1029 13.9645Z" fill="url(#paint3_linear_9556_4650)"/>
<path d="M32.6248 13.1934C30.4833 13.6858 28.5086 14.732 26.8985 16.2273C21.6138 21.1205 21.6328 26.0814 21.6328 26.0814L26.0069 30.4555C26.0069 30.4555 30.9682 30.4746 35.861 25.1901C37.357 23.5793 38.4034 21.6036 38.8955 19.4611C37.3085 19.2463 35.8358 18.517 34.7031 17.3848C33.5704 16.2527 32.8403 14.7803 32.6248 13.1934ZM30.6098 24.028C30.1048 24.028 29.6112 23.8782 29.1914 23.5977C28.7715 23.3172 28.4443 22.9184 28.251 22.4519C28.0578 21.9854 28.0072 21.4721 28.1058 20.9768C28.2043 20.4816 28.4474 20.0267 28.8045 19.6696C29.1615 19.3126 29.6164 19.0694 30.1117 18.9709C30.6069 18.8724 31.1203 18.923 31.5868 19.1162C32.0533 19.3094 32.452 19.6367 32.7326 20.0565C33.0131 20.4764 33.1628 20.97 33.1628 21.4749C33.1628 21.8102 33.0968 22.1422 32.9685 22.4519C32.8402 22.7617 32.6521 23.0431 32.415 23.2802C32.178 23.5173 31.8965 23.7053 31.5868 23.8336C31.277 23.9619 30.945 24.028 30.6098 24.028Z" fill="url(#paint4_linear_9556_4650)"/>
<defs>
<linearGradient id="paint0_linear_9556_4650" x1="14.6951" y1="28.7093" x2="24.6101" y2="31.0224" gradientUnits="userSpaceOnUse">
<stop offset="0.00972591" stop-color="#44C3F9"/>
<stop offset="1" stop-color="#27E4A0"/>
</linearGradient>
<linearGradient id="paint1_linear_9556_4650" x1="25.9685" y1="28.8407" x2="34.9127" y2="30.2251" gradientUnits="userSpaceOnUse">
<stop offset="0.00972591" stop-color="#44C3F9"/>
<stop offset="1" stop-color="#27E4A0"/>
</linearGradient>
<linearGradient id="paint2_linear_9556_4650" x1="11.7611" y1="18.5214" x2="24.0716" y2="22.877" gradientUnits="userSpaceOnUse">
<stop offset="0.00972591" stop-color="#44C3F9"/>
<stop offset="1" stop-color="#27E4A0"/>
</linearGradient>
<linearGradient id="paint3_linear_9556_4650" x1="33.4232" y1="12.474" x2="40.5061" y2="14.1326" gradientUnits="userSpaceOnUse">
<stop offset="0.00972591" stop-color="#44C3F9"/>
<stop offset="1" stop-color="#27E4A0"/>
</linearGradient>
<linearGradient id="paint4_linear_9556_4650" x1="20.348" y1="12.0815" x2="42.8244" y2="17.3418" gradientUnits="userSpaceOnUse">
<stop offset="0.00972591" stop-color="#44C3F9"/>
<stop offset="1" stop-color="#27E4A0"/>
</linearGradient>
</defs>
</svg>
