<svg width="15" height="15" viewBox="0 0 15 15" fill="none" xmlns="http://www.w3.org/2000/svg">
<path d="M7.27344 14.0117C6.9901 14.0117 6.75277 13.9157 6.56144 13.7237C6.36944 13.5324 6.27344 13.2951 6.27344 13.0117V8.01172H1.27344C0.990104 8.01172 0.752438 7.91572 0.560438 7.72372C0.369104 7.53239 0.273438 7.29505 0.273438 7.01172C0.273438 6.72839 0.369104 6.49072 0.560438 6.29872C0.752438 6.10739 0.990104 6.01172 1.27344 6.01172H6.27344V1.01172C6.27344 0.728385 6.36944 0.490719 6.56144 0.298719C6.75277 0.107386 6.9901 0.0117188 7.27344 0.0117188C7.55677 0.0117188 7.79444 0.107386 7.98644 0.298719C8.17777 0.490719 8.27344 0.728385 8.27344 1.01172V6.01172H13.2734C13.5568 6.01172 13.7941 6.10739 13.9854 6.29872C14.1774 6.49072 14.2734 6.72839 14.2734 7.01172C14.2734 7.29505 14.1774 7.53239 13.9854 7.72372C13.7941 7.91572 13.5568 8.01172 13.2734 8.01172H8.27344V13.0117C8.27344 13.2951 8.17777 13.5324 7.98644 13.7237C7.79444 13.9157 7.55677 14.0117 7.27344 14.0117Z" fill="#23262F"/>
</svg>
