<svg width="20" height="22" viewBox="0 0 20 22" fill="none" xmlns="http://www.w3.org/2000/svg">
<path d="M10.4754 21.9746L10.2075 18.7602H9.93965C7.4038 18.7602 5.2519 17.8762 3.48396 16.1082C1.71601 14.3403 0.832031 12.1884 0.832031 9.65254C0.832031 7.11669 1.71601 4.96479 3.48396 3.19685C5.2519 1.4289 7.4038 0.544922 9.93965 0.544922C11.2076 0.544922 12.3905 0.781363 13.4884 1.25424C14.587 1.72784 15.5517 2.37966 16.3825 3.2097C17.2125 4.04046 17.864 5.0048 18.3369 6.10271C18.8105 7.20134 19.0473 8.38461 19.0473 9.65254C19.0473 10.9919 18.8287 12.2777 18.3915 13.5099C17.9536 14.7421 17.3554 15.885 16.5968 16.9386C15.8375 17.9923 14.9356 18.9477 13.8913 19.8049C12.8462 20.662 11.7076 21.3853 10.4754 21.9746ZM9.91286 15.5189C10.2165 15.5189 10.4754 15.4118 10.6897 15.1975C10.904 14.9832 11.0111 14.7242 11.0111 14.4206C11.0111 14.1171 10.904 13.8581 10.6897 13.6438C10.4754 13.4295 10.2165 13.3224 9.91286 13.3224C9.60928 13.3224 9.35033 13.4295 9.13604 13.6438C8.92174 13.8581 8.81459 14.1171 8.81459 14.4206C8.81459 14.7242 8.92174 14.9832 9.13604 15.1975C9.35033 15.4118 9.60928 15.5189 9.91286 15.5189ZM9.13604 12.117H10.7433C10.7433 11.5812 10.7968 11.2062 10.904 10.9919C11.0111 10.7776 11.3504 10.3847 11.9219 9.81326C12.2433 9.49182 12.5112 9.14358 12.7255 8.76856C12.9398 8.39354 13.047 7.99174 13.047 7.56314C13.047 6.65238 12.7391 5.96913 12.1233 5.51339C11.5069 5.05837 10.779 4.83086 9.93965 4.83086C9.15389 4.83086 8.49315 5.04944 7.9574 5.48661C7.42166 5.92449 7.04664 6.45594 6.83235 7.08098L8.33242 7.67029C8.42171 7.3667 8.59137 7.0674 8.84138 6.77239C9.09139 6.47809 9.45748 6.33094 9.93965 6.33094C10.4218 6.33094 10.7836 6.46487 11.0251 6.73274C11.2658 7.00061 11.3862 7.29527 11.3862 7.61672C11.3862 7.92031 11.2969 8.19246 11.1183 8.43319C10.9397 8.67463 10.7254 8.92036 10.4754 9.17037C9.85036 9.70611 9.47105 10.1301 9.33748 10.4422C9.20318 10.7551 9.13604 11.3133 9.13604 12.117Z" fill="white"/>
</svg>
