<svg width="22" height="21" viewBox="0 0 22 21" fill="none" xmlns="http://www.w3.org/2000/svg">
<path d="M19.3104 9.60675L18.7449 8.36263L17.5008 7.79712L18.7449 7.23161L19.3104 5.98749L19.8759 7.23161L21.1201 7.79712L19.8759 8.36263L19.3104 9.60675ZM16.596 5.98749L15.7364 4.13262L13.8815 3.27304L15.7364 2.41347L16.596 0.558594L17.4556 2.41347L19.3104 3.27304L17.4556 4.13262L16.596 5.98749ZM7.54784 20.4645C7.05019 20.4645 6.62432 20.2875 6.27024 19.9334C5.91555 19.5787 5.7382 19.1526 5.7382 18.6549H9.35747C9.35747 19.1526 9.18042 19.5787 8.82634 19.9334C8.47165 20.2875 8.04548 20.4645 7.54784 20.4645ZM3.92857 17.7501V15.9405H11.1671V17.7501H3.92857ZM4.15478 15.0356C3.11424 14.4174 2.28875 13.5879 1.6783 12.5474C1.06724 11.5069 0.761719 10.3758 0.761719 9.15434C0.761719 7.26931 1.42163 5.66718 2.74146 4.34796C4.06068 3.02814 5.6628 2.36822 7.54784 2.36822C9.43287 2.36822 11.035 3.02814 12.3542 4.34796C13.674 5.66718 14.334 7.26931 14.334 9.15434C14.334 10.3758 14.0287 11.5069 13.4183 12.5474C12.8072 13.5879 11.9814 14.4174 10.9409 15.0356H4.15478Z" fill="white"/>
</svg>
