<svg width="53" height="53" viewBox="0 0 53 53" fill="none" xmlns="http://www.w3.org/2000/svg">
<rect width="52" height="52" rx="8" transform="matrix(1 0 0 -1 0.273438 52.0449)" fill="#E7FAF4"/>
<g clip-path="url(#clip0_9556_4639)">
<path d="M17.7734 23.7936V21.127C17.7734 19.0052 18.6163 16.9704 20.1166 15.4701C21.6169 13.9698 23.6517 13.127 25.7734 13.127C27.8952 13.127 29.93 13.9698 31.4303 15.4701C32.9306 16.9704 33.7734 19.0052 33.7734 21.127H29.7734V23.7936H35.1068C35.814 23.7936 36.4923 24.0746 36.9924 24.5747C37.4925 25.0748 37.7734 25.753 37.7734 26.4603V37.127C37.7734 37.8342 37.4925 38.5125 36.9924 39.0126C36.4923 39.5127 35.814 39.7936 35.1068 39.7936H16.4401C15.7329 39.7936 15.0546 39.5127 14.5545 39.0126C14.0544 38.5125 13.7734 37.8342 13.7734 37.127V26.4603C13.7734 24.9936 14.9734 23.7936 16.4401 23.7936H17.7734ZM24.4401 32.767V35.7936H27.1068V32.767C27.6151 32.4734 28.0125 32.0204 28.2371 31.478C28.4618 30.9357 28.5012 30.3344 28.3492 29.7674C28.1973 29.2003 27.8625 28.6993 27.3968 28.3419C26.9311 27.9846 26.3605 27.7909 25.7734 27.7909C25.1864 27.7909 24.6158 27.9846 24.1501 28.3419C23.6844 28.6993 23.3496 29.2003 23.1976 29.7674C23.0457 30.3344 23.0851 30.9357 23.3098 31.478C23.5344 32.0204 23.9317 32.4734 24.4401 32.767ZM21.7734 21.127V23.7936H29.7734V21.127C29.7734 20.0661 29.352 19.0487 28.6019 18.2985C27.8517 17.5484 26.8343 17.127 25.7734 17.127C24.7126 17.127 23.6952 17.5484 22.945 18.2985C22.1949 19.0487 21.7734 20.0661 21.7734 21.127Z" fill="url(#paint0_linear_9556_4639)"/>
</g>
<defs>
<linearGradient id="paint0_linear_9556_4639" x1="11.9872" y1="11.4093" x2="43.5471" y2="18.0567" gradientUnits="userSpaceOnUse">
<stop offset="0.00972591" stop-color="#44C3F9"/>
<stop offset="1" stop-color="#27E4A0"/>
</linearGradient>
<clipPath id="clip0_9556_4639">
<rect width="26.6667" height="26.6667" fill="white" transform="translate(12.4414 13.127)"/>
</clipPath>
</defs>
</svg>
