<svg width="53" height="53" viewBox="0 0 53 53" fill="none" xmlns="http://www.w3.org/2000/svg">
<rect width="52" height="52" rx="8" transform="matrix(1 0 0 -1 0.273438 52.0117)" fill="#E7FAF4"/>
<path d="M12.1055 20.4251C12.1055 18.2735 13.8497 16.5293 16.0013 16.5293H36.543C38.6946 16.5293 40.4388 18.2735 40.4388 20.4251V22.9043H12.1055V20.4251Z" fill="url(#paint0_linear_9556_4691)"/>
<path d="M12.1055 25.0293H40.4388V32.4668C40.4388 34.6184 38.6946 36.3626 36.543 36.3626H16.0013C13.8497 36.3626 12.1055 34.6184 12.1055 32.4668V25.0293ZM31.5846 29.9876C30.9979 29.9876 30.5221 30.4633 30.5221 31.0501C30.5221 31.6369 30.9979 32.1126 31.5846 32.1126H35.1263C35.7131 32.1126 36.1888 31.6369 36.1888 31.0501C36.1888 30.4633 35.7131 29.9876 35.1263 29.9876H31.5846Z" fill="url(#paint1_linear_9556_4691)"/>
<defs>
<linearGradient id="paint0_linear_9556_4691" x1="9.99673" y1="16.1187" x2="28.687" y2="35.5592" gradientUnits="userSpaceOnUse">
<stop offset="0.00972591" stop-color="#44C3F9"/>
<stop offset="1" stop-color="#27E4A0"/>
</linearGradient>
<linearGradient id="paint1_linear_9556_4691" x1="9.99673" y1="24.2993" x2="38.9848" y2="41.2596" gradientUnits="userSpaceOnUse">
<stop offset="0.00972591" stop-color="#44C3F9"/>
<stop offset="1" stop-color="#27E4A0"/>
</linearGradient>
</defs>
</svg>
