<svg width="53" height="53" viewBox="0 0 53 53" fill="none" xmlns="http://www.w3.org/2000/svg">
<rect width="52" height="52" rx="8" transform="matrix(1 0 0 -1 0.273438 52.0117)" fill="#E7FAF4"/>
<g clip-path="url(#clip0_10144_5629)">
<path d="M31.3802 23.6684C30.0545 24.419 28.3158 25.239 26.2552 25.8478C25.8289 25.9559 25.5352 25.8996 25.3945 25.8528C23.3189 24.9853 21.8727 24.2921 20.5927 23.5609C20.5839 23.5565 20.5789 23.5546 20.5695 23.5496C19.7777 23.1128 19.7695 23.5496 19.7695 23.5496V28.6109C19.7695 29.3015 20.3295 29.8609 21.0195 29.8609H30.6077C31.2977 29.8609 31.8577 29.3015 31.8577 28.6109V23.6684C31.8577 23.3796 31.3802 23.6684 31.3802 23.6684Z" fill="url(#paint0_linear_10144_5629)"/>
<path d="M26 11C17.7156 11 11 17.7156 11 26C11 34.2838 17.7156 41 26 41C34.2844 41 41 34.2838 41 26C41 17.7156 34.2844 11 26 11ZM34.2562 30.64C34.2562 31.33 33.6962 31.89 33.0062 31.89H18.9938C18.3038 31.89 17.7438 31.33 17.7438 30.64V21.36C17.7438 20.67 18.3038 20.11 18.9938 20.11H33.0062C33.6962 20.11 34.2562 20.67 34.2562 21.36V30.64Z" fill="url(#paint1_linear_10144_5629)"/>
</g>
<defs>
<linearGradient id="paint0_linear_10144_5629" x1="18.8699" y1="22.9364" x2="32.8308" y2="29.0076" gradientUnits="userSpaceOnUse">
<stop offset="0.00972591" stop-color="#44C3F9"/>
<stop offset="1" stop-color="#27E4A0"/>
</linearGradient>
<linearGradient id="paint1_linear_10144_5629" x1="8.76722" y1="9.06766" x2="47.8279" y2="18.2091" gradientUnits="userSpaceOnUse">
<stop offset="0.00972591" stop-color="#44C3F9"/>
<stop offset="1" stop-color="#27E4A0"/>
</linearGradient>
<clipPath id="clip0_10144_5629">
<rect width="30" height="30" fill="white" transform="translate(11 11)"/>
</clipPath>
</defs>
</svg>
