<svg width="53" height="53" viewBox="0 0 53 53" fill="none" xmlns="http://www.w3.org/2000/svg">
<rect width="52" height="52" rx="8" transform="matrix(1 0 0 -1 0.273438 52.0117)" fill="#E7FAF4"/>
<path d="M37.8483 15.0999H17.974C17.4469 15.0999 16.9414 15.3092 16.5687 15.682C16.196 16.0547 15.9866 16.5602 15.9866 17.0873V36.9615C15.9866 37.4886 16.196 37.9942 16.5687 38.3669C16.9414 38.7396 17.4469 38.949 17.974 38.949H31.4761C31.737 38.9492 31.9954 38.8977 32.2363 38.7975C32.4772 38.6973 32.6959 38.5504 32.8797 38.3652L39.2519 31.993C39.4371 31.8092 39.584 31.5905 39.6842 31.3496C39.7845 31.1087 39.8359 30.8503 39.8357 30.5894V17.0873C39.8357 16.5602 39.6263 16.0547 39.2536 15.682C38.8809 15.3092 38.3754 15.0999 37.8483 15.0999ZM31.886 36.5516V30.9993H37.4384L31.886 36.5516Z" fill="url(#paint0_linear_9556_4667)"/>
<defs>
<linearGradient id="paint0_linear_9556_4667" x1="9.64505" y1="9.07679" x2="51.0479" y2="18.7664" gradientUnits="userSpaceOnUse">
<stop offset="0.00972591" stop-color="#44C3F9"/>
<stop offset="1" stop-color="#27E4A0"/>
</linearGradient>
</defs>
</svg>
