<svg width="406" height="446" viewBox="0 0 406 446" fill="none" xmlns="http://www.w3.org/2000/svg">
<g opacity="0.4" filter="url(#filter0_f_9572_9741)">
<path d="M98.0276 345.465C93.1971 342.788 93.1258 338.323 97.8682 335.492L229.768 256.772C234.51 253.942 242.271 253.818 247.101 256.495L373.455 326.53C378.285 329.208 378.356 333.673 373.614 336.503L241.715 415.223C236.972 418.054 229.212 418.178 224.381 415.5L98.0276 345.465Z" fill="#93B0E3"/>
</g>
<g filter="url(#filter1_f_9572_9741)">
<path d="M146.783 265.412C145.043 258.644 149.696 253.89 155.119 256.895L229.84 294.79C232.317 296.162 234.323 298.9 235.118 301.99L250.793 362.954C251.758 366.704 260.328 378.517 257.868 379.983L222.66 400.826C218.492 403.311 213.168 403.117 208.076 400.295L113.501 347.888C112.57 347.372 112.055 346.242 112.092 345.285C112.106 344.923 112.199 344.586 112.379 344.316C112.469 344.18 112.582 344.061 112.718 343.964C112.775 343.923 112.841 343.894 112.908 343.872L162.086 327.313C162.355 327.222 162.618 327.108 162.848 326.942C165.046 325.359 165.909 322.01 164.993 318.447L146.783 265.412Z" fill="#3666BF" fill-opacity="0.7"/>
</g>
<path d="M140.934 261.656C139.193 254.889 143.846 250.134 149.269 253.139L239.416 303.092C241.892 304.464 243.899 307.202 244.693 310.292L260.369 371.256C261.333 375.006 260.326 378.519 257.867 379.985L222.658 400.828C218.491 403.313 213.166 403.119 208.074 400.297L113.499 347.89C112.568 347.375 112.053 346.244 112.091 345.287C112.105 344.925 112.198 344.588 112.377 344.318C112.487 344.153 112.629 344.013 112.806 343.908L151.451 321.017C153.91 319.55 154.917 316.038 153.952 312.287L140.934 261.656Z" fill="url(#paint0_linear_9572_9741)"/>
<path d="M137.314 253.121C136.444 249.74 138.769 247.364 141.478 248.866L239.766 303.33C241.003 304.015 242.006 305.383 242.403 306.927L259.527 373.526C260.009 375.4 259.506 377.155 258.278 377.888L219.484 401.017C217.401 402.259 214.741 402.162 212.197 400.752L111.697 345.062C110.948 344.647 110.738 343.438 111.35 343.072L151.861 318.919C153.09 318.186 153.593 316.431 153.111 314.557L137.314 253.121Z" fill="url(#paint1_linear_9572_9741)"/>
<path d="M137.314 253.121C136.444 249.74 138.769 247.364 141.478 248.866L239.766 303.33C241.003 304.015 242.006 305.383 242.403 306.927L259.527 373.526C260.009 375.4 259.506 377.155 258.278 377.888L219.484 401.017C217.401 402.259 214.741 402.162 212.197 400.752L111.697 345.062C110.948 344.647 110.738 343.438 111.35 343.072L151.861 318.919C153.09 318.186 153.593 316.431 153.111 314.557L137.314 253.121Z" fill="url(#paint2_linear_9572_9741)" fill-opacity="0.3"/>
<path d="M27.7419 9.1591L23.6093 11.1701C24.4046 10.7949 24.8544 10.9417 25.8389 11.006C26.3184 10.2068 26.9683 9.58104 27.7419 9.1591Z" fill="url(#paint3_linear_9572_9741)"/>
<path fill-rule="evenodd" clip-rule="evenodd" d="M23.3626 11.2951C23.4435 11.2512 23.5258 11.2095 23.6093 11.1701L23.3626 11.2951Z" fill="url(#paint4_linear_9572_9741)"/>
<path d="M27.9567 11.4814L300.712 163.552C304.135 166.581 311.103 176.506 310.892 180.923L313.201 360.034L309.649 365.058L315.619 362.883C317.214 362.302 318.268 360.778 318.25 359.081L316.257 177.742C316.637 171.009 311.984 163.018 307.747 160.156L32.8081 9.02325C30.9488 8.32025 29.2132 8.40068 27.8468 9.1035C27.821 9.1168 27.7953 9.13031 27.7697 9.14404C27.7604 9.14903 27.7511 9.15405 27.7419 9.1591C26.9683 9.58104 26.3184 10.2068 25.8389 11.006C26.5158 11.0502 27.2267 11.2055 27.9567 11.4814Z" fill="url(#paint5_linear_9572_9741)"/>
<rect width="336.367" height="201.876" rx="7" transform="matrix(0.872399 0.488794 0.012891 0.999917 17.582 4.6582)" fill="white"/>
<rect width="243.398" height="59.7345" rx="4" transform="matrix(0.872399 0.488794 0.012891 0.999917 76.6875 154.48)" fill="url(#paint6_linear_9572_9741)"/>
<g filter="url(#filter2_di_9572_9741)">
<rect width="41.4045" height="155.189" rx="4" transform="matrix(0.872399 0.488794 0.012891 0.999917 30.1523 38.7168)" fill="url(#paint7_linear_9572_9741)"/>
</g>
<g filter="url(#filter3_d_9572_9741)">
<rect width="70.3594" height="70.3594" rx="4" transform="matrix(0.872399 0.488794 0.012891 0.999917 78.3672 67.1387)" fill="url(#paint8_linear_9572_9741)"/>
</g>
<g filter="url(#filter4_d_9572_9741)">
<rect width="74.0112" height="74.0112" rx="4" transform="matrix(0.872399 0.488794 0.012891 0.999917 228.984 146.188)" fill="url(#paint9_linear_9572_9741)"/>
</g>
<path d="M259.88 182.003C250.493 176.484 243.001 181.151 243.147 192.428C243.292 203.703 251.019 217.315 260.406 222.832C269.794 228.351 277.285 223.684 277.139 212.407L260.143 202.417L259.88 182.003Z" fill="white"/>
<path d="M263.483 179.909L263.746 200.325L280.742 210.315C280.598 199.039 272.871 185.425 263.483 179.909Z" fill="white"/>
<g filter="url(#filter5_d_9572_9741)">
<rect width="75.513" height="75.513" rx="4" transform="matrix(0.872399 0.488794 0.012891 0.999917 151.082 101.391)" fill="url(#paint10_linear_9572_9741)"/>
</g>
<path d="M196.916 148.324L171.82 133.852C168.369 131.862 165.588 133.563 165.641 137.631L165.665 139.48C165.679 140.589 166.316 141.691 167.257 142.233L201.765 162.131C202.706 162.674 203.324 162.296 203.309 161.187L203.286 159.338C203.233 155.27 200.367 150.313 196.916 148.324Z" fill="white"/>
<path d="M201.812 165.829L167.305 145.931C166.364 145.389 165.746 145.766 165.76 146.876L165.879 156.121C165.932 160.189 168.798 165.145 172.249 167.135L197.345 181.606C200.796 183.596 203.576 181.896 203.524 177.828L203.405 168.583C203.39 167.473 202.753 166.372 201.812 165.829ZM183.157 167.919L173.746 162.492C172.805 161.95 172.168 160.848 172.153 159.739C172.139 158.63 172.757 158.252 173.698 158.794L183.109 164.221C184.05 164.764 184.687 165.865 184.702 166.975C184.716 168.084 184.098 168.462 183.157 167.919ZM195.634 169.608L192.497 167.799C191.555 167.256 190.918 166.155 190.904 165.045C190.89 163.936 191.508 163.558 192.449 164.101L195.586 165.91C196.527 166.452 197.164 167.554 197.178 168.663C197.193 169.773 196.575 170.15 195.634 169.608Z" fill="white"/>
<path d="M109.448 98.2052C99.2802 92.3775 90.9913 97.1981 91.0283 108.918C91.0654 120.637 99.4149 134.994 109.583 140.822C119.751 146.649 128.04 141.829 128.003 130.109C127.966 118.39 119.616 104.033 109.448 98.2052ZM109.471 105.308C112.86 107.25 115.645 112.746 115.661 117.718C115.677 122.69 112.916 125.007 109.527 123.065C106.137 121.122 103.352 115.626 103.336 110.654C103.321 105.683 106.081 103.365 109.471 105.308ZM119.726 138.659C117.115 139.821 113.423 139.478 109.572 137.27C105.72 135.063 102.017 131.168 99.3897 127.003C98.7712 125.94 98.6138 124.786 99.2277 124.429C100.915 123.092 103.221 122.818 105.683 123.343C106.918 124.76 108.151 125.822 109.538 126.616C110.925 127.411 112.156 127.762 113.386 127.758C116.008 130.147 118.17 132.981 119.872 136.261C120.49 137.325 120.494 138.39 119.726 138.659Z" fill="white"/>
<defs>
<filter id="filter0_f_9572_9741" x="66.3594" y="226.566" width="338.766" height="218.863" filterUnits="userSpaceOnUse" color-interpolation-filters="sRGB">
<feFlood flood-opacity="0" result="BackgroundImageFix"/>
<feBlend mode="normal" in="SourceGraphic" in2="BackgroundImageFix" result="shape"/>
<feGaussianBlur stdDeviation="14" result="effect1_foregroundBlur_9572_9741"/>
</filter>
<filter id="filter1_f_9572_9741" x="106.09" y="249.975" width="158.219" height="158.586" filterUnits="userSpaceOnUse" color-interpolation-filters="sRGB">
<feFlood flood-opacity="0" result="BackgroundImageFix"/>
<feBlend mode="normal" in="SourceGraphic" in2="BackgroundImageFix" result="shape"/>
<feGaussianBlur stdDeviation="3" result="effect1_foregroundBlur_9572_9741"/>
</filter>
<filter id="filter2_di_9572_9741" x="26.2031" y="30.2188" width="46.0195" height="190.41" filterUnits="userSpaceOnUse" color-interpolation-filters="sRGB">
<feFlood flood-opacity="0" result="BackgroundImageFix"/>
<feColorMatrix in="SourceAlpha" type="matrix" values="0 0 0 0 0 0 0 0 0 0 0 0 0 0 0 0 0 0 127 0" result="hardAlpha"/>
<feOffset dy="-6"/>
<feGaussianBlur stdDeviation="2"/>
<feComposite in2="hardAlpha" operator="out"/>
<feColorMatrix type="matrix" values="0 0 0 0 0 0 0 0 0 0 0 0 0 0 0 0 0 0 0.03 0"/>
<feBlend mode="normal" in2="BackgroundImageFix" result="effect1_dropShadow_9572_9741"/>
<feBlend mode="normal" in="SourceGraphic" in2="effect1_dropShadow_9572_9741" result="shape"/>
<feColorMatrix in="SourceAlpha" type="matrix" values="0 0 0 0 0 0 0 0 0 0 0 0 0 0 0 0 0 0 127 0" result="hardAlpha"/>
<feOffset dy="8"/>
<feGaussianBlur stdDeviation="4.5"/>
<feComposite in2="hardAlpha" operator="arithmetic" k2="-1" k3="1"/>
<feColorMatrix type="matrix" values="0 0 0 0 0 0 0 0 0 0 0 0 0 0 0 0 0 0 0.04 0"/>
<feBlend mode="normal" in2="shape" result="effect2_innerShadow_9572_9741"/>
</filter>
<filter id="filter3_d_9572_9741" x="74.418" y="58.6406" width="70.1875" height="111.74" filterUnits="userSpaceOnUse" color-interpolation-filters="sRGB">
<feFlood flood-opacity="0" result="BackgroundImageFix"/>
<feColorMatrix in="SourceAlpha" type="matrix" values="0 0 0 0 0 0 0 0 0 0 0 0 0 0 0 0 0 0 127 0" result="hardAlpha"/>
<feOffset dy="-6"/>
<feGaussianBlur stdDeviation="2"/>
<feComposite in2="hardAlpha" operator="out"/>
<feColorMatrix type="matrix" values="0 0 0 0 0 0 0 0 0 0 0 0 0 0 0 0 0 0 0.03 0"/>
<feBlend mode="normal" in2="BackgroundImageFix" result="effect1_dropShadow_9572_9741"/>
<feBlend mode="normal" in="SourceGraphic" in2="effect1_dropShadow_9572_9741" result="shape"/>
</filter>
<filter id="filter4_d_9572_9741" x="225.035" y="137.689" width="73.418" height="117.178" filterUnits="userSpaceOnUse" color-interpolation-filters="sRGB">
<feFlood flood-opacity="0" result="BackgroundImageFix"/>
<feColorMatrix in="SourceAlpha" type="matrix" values="0 0 0 0 0 0 0 0 0 0 0 0 0 0 0 0 0 0 127 0" result="hardAlpha"/>
<feOffset dy="-6"/>
<feGaussianBlur stdDeviation="2"/>
<feComposite in2="hardAlpha" operator="out"/>
<feColorMatrix type="matrix" values="0 0 0 0 0 0 0 0 0 0 0 0 0 0 0 0 0 0 0.03 0"/>
<feBlend mode="normal" in2="BackgroundImageFix" result="effect1_dropShadow_9572_9741"/>
<feBlend mode="normal" in="SourceGraphic" in2="effect1_dropShadow_9572_9741" result="shape"/>
</filter>
<filter id="filter5_d_9572_9741" x="147.133" y="92.8926" width="74.75" height="119.414" filterUnits="userSpaceOnUse" color-interpolation-filters="sRGB">
<feFlood flood-opacity="0" result="BackgroundImageFix"/>
<feColorMatrix in="SourceAlpha" type="matrix" values="0 0 0 0 0 0 0 0 0 0 0 0 0 0 0 0 0 0 127 0" result="hardAlpha"/>
<feOffset dy="-6"/>
<feGaussianBlur stdDeviation="2"/>
<feComposite in2="hardAlpha" operator="out"/>
<feColorMatrix type="matrix" values="0 0 0 0 0 0 0 0 0 0 0 0 0 0 0 0 0 0 0.03 0"/>
<feBlend mode="normal" in2="BackgroundImageFix" result="effect1_dropShadow_9572_9741"/>
<feBlend mode="normal" in="SourceGraphic" in2="effect1_dropShadow_9572_9741" result="shape"/>
</filter>
<linearGradient id="paint0_linear_9572_9741" x1="225.929" y1="299.662" x2="180.51" y2="382.728" gradientUnits="userSpaceOnUse">
<stop stop-color="#94B0E3"/>
<stop offset="0.517284" stop-color="#A0BAE8"/>
<stop offset="0.611732" stop-color="#B5CAF1"/>
</linearGradient>
<linearGradient id="paint1_linear_9572_9741" x1="226.021" y1="300.179" x2="180.603" y2="383.245" gradientUnits="userSpaceOnUse">
<stop stop-color="#D2E1FF"/>
<stop offset="0.517284" stop-color="#CADBFD"/>
<stop offset="0.611732" stop-color="#E4EEFD"/>
</linearGradient>
<linearGradient id="paint2_linear_9572_9741" x1="200.397" y1="281.514" x2="176.553" y2="324.651" gradientUnits="userSpaceOnUse">
<stop stop-color="#3189F0"/>
<stop offset="0.989583" stop-color="#4590E9" stop-opacity="0"/>
</linearGradient>
<linearGradient id="paint3_linear_9572_9741" x1="248.835" y1="91.9795" x2="286.516" y2="155.102" gradientUnits="userSpaceOnUse">
<stop stop-color="#E5EFFD"/>
<stop offset="0.61891" stop-color="#B5CAF1"/>
<stop offset="1" stop-color="#9BB2DE"/>
</linearGradient>
<linearGradient id="paint4_linear_9572_9741" x1="248.835" y1="91.9795" x2="286.516" y2="155.102" gradientUnits="userSpaceOnUse">
<stop stop-color="#E5EFFD"/>
<stop offset="0.61891" stop-color="#B5CAF1"/>
<stop offset="1" stop-color="#9BB2DE"/>
</linearGradient>
<linearGradient id="paint5_linear_9572_9741" x1="248.835" y1="91.9795" x2="286.516" y2="155.102" gradientUnits="userSpaceOnUse">
<stop stop-color="#E5EFFD"/>
<stop offset="0.61891" stop-color="#B5CAF1"/>
<stop offset="1" stop-color="#9BB2DE"/>
</linearGradient>
<linearGradient id="paint6_linear_9572_9741" x1="-18.1152" y1="-3.84759" x2="156.953" y2="163.098" gradientUnits="userSpaceOnUse">
<stop offset="0.00972591" stop-color="#44C3F9"/>
<stop offset="1" stop-color="#27E4A0"/>
</linearGradient>
<linearGradient id="paint7_linear_9572_9741" x1="-3.08158" y1="-9.99594" x2="53.5599" y2="-6.45925" gradientUnits="userSpaceOnUse">
<stop offset="0.00972591" stop-color="#44C3F9"/>
<stop offset="1" stop-color="#27E4A0"/>
</linearGradient>
<linearGradient id="paint8_linear_9572_9741" x1="-5.23658" y1="-4.53195" x2="86.373" y2="16.9076" gradientUnits="userSpaceOnUse">
<stop offset="0.00972591" stop-color="#44C3F9"/>
<stop offset="1" stop-color="#27E4A0"/>
</linearGradient>
<linearGradient id="paint9_linear_9572_9741" x1="-5.50837" y1="-4.76717" x2="90.856" y2="17.7852" gradientUnits="userSpaceOnUse">
<stop offset="0.00972591" stop-color="#44C3F9"/>
<stop offset="1" stop-color="#27E4A0"/>
</linearGradient>
<linearGradient id="paint10_linear_9572_9741" x1="-5.62014" y1="-4.8639" x2="92.6996" y2="18.1461" gradientUnits="userSpaceOnUse">
<stop offset="0.00972591" stop-color="#44C3F9"/>
<stop offset="1" stop-color="#27E4A0"/>
</linearGradient>
</defs>
</svg>
