<svg width="40" height="41" viewBox="0 0 40 41" fill="none" xmlns="http://www.w3.org/2000/svg">
<rect y="0.225586" width="40" height="40" rx="6" fill="url(#paint0_linear_10033_3666)"/>
<g clip-path="url(#clip0_10033_3666)">
<path d="M11.6875 19.2459H18.1297C18.6225 19.2459 19.0203 18.8481 19.0203 18.3553V11.9131C19.0203 11.4203 18.6225 11.0225 18.1297 11.0225H11.6875C11.1947 11.0225 10.7969 11.4203 10.7969 11.9131V18.3553C10.7969 18.8481 11.1947 19.2459 11.6875 19.2459Z" fill="white"/>
<path d="M29.2 11.9131C29.2 11.4203 28.8022 11.0225 28.3094 11.0225H21.8672C21.3744 11.0225 20.9766 11.4203 20.9766 11.9131V18.3553C20.9766 18.8481 21.3744 19.2459 21.8672 19.2459H28.3094C28.8022 19.2459 29.2 18.8481 29.2 18.3553V11.9131Z" fill="white"/>
<path d="M11.6875 29.4295H18.1297C18.6225 29.4295 19.0203 29.0317 19.0203 28.5389V22.0967C19.0203 21.6039 18.6225 21.2061 18.1297 21.2061H11.6875C11.1947 21.2061 10.7969 21.6039 10.7969 22.0967V28.5389C10.7969 29.0317 11.1947 29.4295 11.6875 29.4295Z" fill="white"/>
<path d="M25.0853 21.2061C22.8172 21.2061 20.9766 23.0467 20.9766 25.3148C20.9766 27.583 22.8172 29.4295 25.0853 29.4295C27.3534 29.4295 29.2 27.583 29.2 25.3148C29.2 23.0467 27.3534 21.2061 25.0853 21.2061Z" fill="white"/>
</g>
<defs>
<linearGradient id="paint0_linear_10033_3666" x1="-2.97705" y1="-2.35087" x2="49.1039" y2="9.83773" gradientUnits="userSpaceOnUse">
<stop offset="0.00972591" stop-color="#44C3F9"/>
<stop offset="1" stop-color="#27E4A0"/>
</linearGradient>
<clipPath id="clip0_10033_3666">
<rect width="19" height="19" fill="white" transform="translate(10.5 10.7256)"/>
</clipPath>
</defs>
</svg>
