<svg width="40" height="41" viewBox="0 0 40 41" fill="none" xmlns="http://www.w3.org/2000/svg">
<rect y="0.265625" width="40" height="40" rx="6" fill="url(#paint0_linear_10033_3693)"/>
<path d="M31.9238 18.2721C31.7743 18.159 31.6013 18.081 31.4176 18.044C31.234 18.0069 31.0443 18.0117 30.8628 18.058C30.5617 18.1423 30.251 18.1875 29.9384 18.1924C27.9565 18.1924 26.3305 16.6336 26.214 14.7445C26.2054 14.6047 26.2243 14.4649 26.2284 14.325C26.2365 14.1303 26.1989 13.9365 26.1184 13.7591C26.038 13.5817 25.9171 13.4258 25.7655 13.3039C25.6138 13.182 25.4357 13.0975 25.2455 13.0573C25.0553 13.0171 24.8583 13.0222 24.6704 13.0724C24.3629 13.1592 24.0456 13.2061 23.7261 13.2118C21.6711 13.2118 19.9988 11.5359 19.9988 9.47637C19.9988 9.20618 20.0373 8.92353 20.1218 8.58484C20.1696 8.39153 20.1705 8.18953 20.1243 7.99581C20.0781 7.80209 19.9862 7.6223 19.8564 7.47153C19.7265 7.32077 19.5624 7.20342 19.3779 7.12935C19.1935 7.05528 18.9939 7.02664 18.7961 7.04584C15.7191 7.33324 12.861 8.76448 10.7841 11.0578C8.70728 13.3512 7.56222 16.3406 7.57431 19.4376C7.57431 26.3034 13.1479 31.8891 19.9988 31.8891C26.8497 31.8891 32.4233 26.3034 32.4233 19.4376C32.4233 19.3766 32.4196 19.3168 32.4146 19.2384C32.4104 19.0507 32.3641 18.8664 32.2792 18.6992C32.1942 18.5319 32.0728 18.3859 31.9238 18.2721ZM15.6502 11.9667C16.1445 11.9667 16.6185 12.1635 16.968 12.5137C17.3176 12.864 17.5139 13.3391 17.5139 13.8344C17.5139 14.3298 17.3176 14.8048 16.968 15.1551C16.6185 15.5054 16.1445 15.7021 15.6502 15.7021C15.156 15.7021 14.6819 15.5054 14.3324 15.1551C13.9829 14.8048 13.7866 14.3298 13.7866 13.8344C13.7866 13.3391 13.9829 12.864 14.3324 12.5137C14.6819 12.1635 15.156 11.9667 15.6502 11.9667ZM13.1653 21.9279C12.9206 21.9279 12.6782 21.8796 12.4521 21.7857C12.226 21.6919 12.0206 21.5543 11.8475 21.3809C11.6745 21.2074 11.5372 21.0015 11.4435 20.7749C11.3499 20.5483 11.3017 20.3054 11.3017 20.0602C11.3017 19.8149 11.3499 19.572 11.4435 19.3454C11.5372 19.1188 11.6745 18.9129 11.8475 18.7395C12.0206 18.566 12.226 18.4285 12.4521 18.3346C12.6782 18.2407 12.9206 18.1924 13.1653 18.1924C13.6596 18.1924 14.1336 18.3892 14.4831 18.7395C14.8327 19.0898 15.029 19.5648 15.029 20.0602C15.029 20.5555 14.8327 21.0306 14.4831 21.3809C14.1336 21.7311 13.6596 21.9279 13.1653 21.9279ZM16.8927 26.9085C16.3984 26.9085 15.9244 26.7117 15.5749 26.3615C15.2254 26.0112 15.029 25.5361 15.029 25.0408C15.029 24.5454 15.2254 24.0704 15.5749 23.7201C15.9244 23.3698 16.3984 23.173 16.8927 23.173C17.387 23.173 17.861 23.3698 18.2105 23.7201C18.56 24.0704 18.7564 24.5454 18.7564 25.0408C18.7564 25.5361 18.56 26.0112 18.2105 26.3615C17.861 26.7117 17.387 26.9085 16.8927 26.9085ZM19.9988 18.815C19.9988 18.3197 20.1952 17.8446 20.5447 17.4943C20.8942 17.1441 21.3682 16.9473 21.8625 16.9473C22.3568 16.9473 22.8308 17.1441 23.1803 17.4943C23.5298 17.8446 23.7261 18.3197 23.7261 18.815C23.7261 19.3104 23.5298 19.7854 23.1803 20.1357C22.8308 20.486 22.3568 20.6827 21.8625 20.6827C21.3682 20.6827 20.8942 20.486 20.5447 20.1357C20.1952 19.7854 19.9988 19.3104 19.9988 18.815ZM24.3474 26.9085C23.8531 26.9085 23.3791 26.7117 23.0296 26.3615C22.68 26.0112 22.4837 25.5361 22.4837 25.0408C22.4837 24.5454 22.68 24.0704 23.0296 23.7201C23.3791 23.3698 23.8531 23.173 24.3474 23.173C24.8417 23.173 25.3157 23.3698 25.6652 23.7201C26.0147 24.0704 26.211 24.5454 26.211 25.0408C26.211 25.5361 26.0147 26.0112 25.6652 26.3615C25.3157 26.7117 24.8417 26.9085 24.3474 26.9085Z" fill="white"/>
<defs>
<linearGradient id="paint0_linear_10033_3693" x1="-2.97705" y1="-2.31083" x2="49.1039" y2="9.87777" gradientUnits="userSpaceOnUse">
<stop offset="0.00972591" stop-color="#44C3F9"/>
<stop offset="1" stop-color="#27E4A0"/>
</linearGradient>
</defs>
</svg>
