<svg width="40" height="40" viewBox="0 0 40 40" fill="none" xmlns="http://www.w3.org/2000/svg">
<rect width="40" height="40" rx="6" fill="url(#paint0_linear_10979_3558)"/>
<path d="M19.5949 7.06444L8.92988 10.5418C8.65995 10.6299 8.42439 10.8033 8.25724 11.0372C8.09008 11.271 8 11.5531 8 11.8427V20.0294C8 22.2855 8.59398 24.5 9.71963 26.4406C10.8453 28.3812 12.4611 29.9764 14.3976 31.0589L19.3607 33.833C19.5567 33.9426 19.7766 34 20 34C20.2234 34 20.4432 33.9426 20.6393 33.833L25.6026 31.0589C27.539 29.9765 29.1548 28.3815 30.2804 26.441C31.406 24.5005 32 22.2861 32 20.0301V11.839C32 11.5504 31.9103 11.2694 31.7437 11.0364C31.5772 10.8035 31.3425 10.6307 31.0736 10.543L20.4051 7.06444C20.1416 6.97852 19.8584 6.97852 19.5949 7.06444ZM24.4122 21.2441C24.4258 21.2487 24.4398 21.2466 24.4531 21.2523L25.7906 21.8186L25.8578 21.6526C25.8871 21.5796 25.9303 21.5133 25.9847 21.4574C26.0392 21.4015 26.1039 21.3571 26.1752 21.3268C26.2465 21.2965 26.3229 21.2809 26.4001 21.2808C26.4773 21.2807 26.5537 21.2962 26.625 21.3264C26.6964 21.3566 26.7611 21.4009 26.8157 21.4567C26.8703 21.5125 26.9135 21.5788 26.943 21.6517C26.9724 21.7246 26.9875 21.8028 26.9874 21.8817C26.9872 21.9606 26.9719 22.0387 26.9422 22.1115L26.6508 22.8306C26.6505 22.831 26.6508 22.8314 26.6505 22.8318L26.6497 22.8332L26.3583 23.5522C26.2988 23.6991 26.1846 23.8159 26.0408 23.8768C25.897 23.9377 25.7354 23.9378 25.5917 23.8769C25.4479 23.8161 25.3336 23.6993 25.274 23.5523C25.2144 23.4054 25.2144 23.2402 25.2739 23.0932L25.3414 22.9269L24.0041 22.3607C23.9906 22.3549 23.9823 22.3434 23.9695 22.3368C23.5658 23.061 22.9791 23.661 22.2708 24.074C22.2771 24.0869 22.2883 24.0954 22.2937 24.109L22.8476 25.4759L23.0104 25.407C23.0816 25.3768 23.1579 25.3613 23.235 25.3613C23.312 25.3614 23.3883 25.3769 23.4595 25.407C23.5307 25.4372 23.5954 25.4814 23.6499 25.5371C23.7044 25.5928 23.7476 25.6589 23.7771 25.7317C23.8065 25.8045 23.8217 25.8825 23.8217 25.9613C23.8217 26.04 23.8065 26.118 23.777 26.1908C23.7475 26.2636 23.7043 26.3297 23.6498 26.3854C23.5953 26.4411 23.5306 26.4853 23.4594 26.5154L22.7557 26.8134C22.7552 26.8135 22.7552 26.8139 22.7547 26.8141C22.7542 26.8141 22.7538 26.8142 22.7534 26.8143L22.05 27.1122C21.9062 27.1728 21.7449 27.1725 21.6013 27.1116C21.4577 27.0506 21.3437 26.9339 21.2842 26.7871C21.2247 26.6403 21.2247 26.4753 21.2841 26.3284C21.3435 26.1816 21.4575 26.0648 21.601 26.0038L21.7632 25.935L21.2093 24.568C21.2039 24.5545 21.206 24.5404 21.2015 24.5268C20.415 24.7467 19.5851 24.7465 18.7987 24.5262C18.7942 24.54 18.7961 24.5542 18.7906 24.568L18.2367 25.9348L18.3994 26.0038C18.4713 26.0335 18.5366 26.0774 18.5917 26.133C18.6469 26.1887 18.6907 26.2549 18.7206 26.3279C18.7506 26.401 18.7661 26.4793 18.7662 26.5585C18.7664 26.6377 18.7512 26.7161 18.7216 26.7893C18.692 26.8625 18.6485 26.9289 18.5936 26.9848C18.5387 27.0407 18.4735 27.0849 18.4019 27.1149C18.3302 27.1449 18.2534 27.1602 18.1759 27.1597C18.0985 27.1592 18.0218 27.1431 17.9505 27.1122L17.2471 26.8144C17.2463 26.8142 17.2458 26.8143 17.2453 26.814C17.2448 26.8138 17.2445 26.8133 17.2437 26.8131L16.5406 26.5154C16.3968 26.4545 16.2825 26.3378 16.223 26.1908C16.1634 26.0438 16.1634 25.8787 16.2229 25.7317C16.2824 25.5847 16.3966 25.4679 16.5404 25.407C16.6842 25.3461 16.8458 25.3461 16.9896 25.407L17.1523 25.4758L17.7062 24.109C17.712 24.0952 17.7232 24.0866 17.7297 24.0735C17.0211 23.6609 16.4342 23.0611 16.0302 22.337C16.0175 22.3435 16.0091 22.355 15.9959 22.3607L14.6586 22.927L14.7261 23.0932C14.7555 23.166 14.7707 23.244 14.7707 23.3228C14.7707 23.4016 14.7555 23.4796 14.726 23.5523C14.6965 23.6251 14.6533 23.6912 14.5987 23.7469C14.5442 23.8026 14.4796 23.8468 14.4083 23.8769C14.3371 23.907 14.2608 23.9225 14.1838 23.9225C14.1067 23.9225 14.0304 23.907 13.9592 23.8768C13.888 23.8467 13.8233 23.8025 13.7689 23.7468C13.7144 23.6911 13.6712 23.6249 13.6417 23.5521L13.0578 22.1115C13.0281 22.0387 13.0128 21.9606 13.0126 21.8817C13.0125 21.8028 13.0276 21.7246 13.057 21.6517C13.0865 21.5788 13.1297 21.5125 13.1843 21.4567C13.2389 21.4009 13.3036 21.3566 13.375 21.3264C13.4463 21.2962 13.5227 21.2807 13.5999 21.2808C13.6771 21.2809 13.7535 21.2965 13.8248 21.3268C13.8961 21.3571 13.9608 21.4015 14.0153 21.4574C14.0697 21.5133 14.1129 21.5796 14.1422 21.6526L14.2094 21.8187L15.5469 21.2523C15.5602 21.2467 15.574 21.2488 15.5875 21.2443C15.3723 20.4404 15.3725 19.5921 15.588 18.7883C15.5745 18.7837 15.5604 18.7855 15.5469 18.7799L14.2096 18.2138L14.1422 18.38C14.1128 18.453 14.0696 18.5192 14.0152 18.5751C13.9607 18.6309 13.896 18.6752 13.8247 18.7054C13.7535 18.7357 13.6771 18.7513 13.6 18.7513C13.5228 18.7514 13.4464 18.7359 13.3752 18.7057C13.3039 18.6755 13.2391 18.6313 13.1846 18.5755C13.13 18.5198 13.0868 18.4536 13.0573 18.3807C13.0279 18.3078 13.0127 18.2297 13.0128 18.1509C13.0129 18.072 13.0282 17.9939 13.0578 17.9211L13.6417 16.48C13.6711 16.4072 13.7144 16.3411 13.7688 16.2854C13.8233 16.2296 13.888 16.1854 13.9592 16.1553C14.0304 16.1251 14.1067 16.1096 14.1838 16.1096C14.2608 16.1096 14.3371 16.1251 14.4083 16.1552C14.4795 16.1854 14.5442 16.2295 14.5987 16.2852C14.6532 16.3409 14.6965 16.407 14.726 16.4798C14.7555 16.5526 14.7707 16.6306 14.7707 16.7093C14.7707 16.7881 14.7555 16.8661 14.726 16.9389L14.6586 17.1054L15.9958 17.6715C16.0094 17.6772 16.018 17.6889 16.0307 17.6955C16.4341 16.9719 17.0201 16.3724 17.7276 15.9595C17.7214 15.9465 17.7117 15.9366 17.7063 15.9231L17.1521 14.5564L16.9896 14.6252C16.9184 14.6554 16.842 14.6711 16.7649 14.6712C16.6877 14.6712 16.6113 14.6558 16.54 14.6257C16.4687 14.5955 16.404 14.5513 16.3494 14.4956C16.2948 14.4398 16.2516 14.3736 16.222 14.3008C16.1925 14.2279 16.1774 14.1498 16.1774 14.071C16.1775 13.9921 16.1927 13.9141 16.2223 13.8412C16.2519 13.7684 16.2952 13.7023 16.3499 13.6466C16.4045 13.5909 16.4693 13.5468 16.5406 13.5167L17.9505 12.9199C18.0943 12.8594 18.2556 12.8596 18.3992 12.9206C18.5428 12.9815 18.6568 13.0982 18.7163 13.2451C18.7758 13.3919 18.7758 13.5568 18.7164 13.7037C18.657 13.8506 18.543 13.9673 18.3995 14.0284L18.2365 14.0973L18.7906 15.4642C18.7961 15.4778 18.794 15.492 18.7985 15.5057C19.585 15.2858 20.4149 15.286 21.2013 15.5063C21.2057 15.4924 21.2037 15.478 21.2094 15.4642L21.7636 14.0972L21.6011 14.0284C21.5297 13.9983 21.4649 13.9542 21.4103 13.8985C21.3557 13.8428 21.3123 13.7767 21.2827 13.7039C21.2531 13.631 21.2379 13.553 21.2378 13.4741C21.2378 13.3953 21.2529 13.3172 21.2825 13.2443C21.312 13.1715 21.3552 13.1053 21.4098 13.0495C21.4644 12.9938 21.5291 12.9496 21.6004 12.9194C21.6717 12.8893 21.7481 12.8738 21.8253 12.8739C21.9024 12.874 21.9788 12.8897 22.05 12.9199L23.4594 13.5167C23.5307 13.5468 23.5955 13.5909 23.6502 13.6466C23.7048 13.7023 23.7481 13.7684 23.7777 13.8412C23.8073 13.9141 23.8226 13.9921 23.8226 14.071C23.8227 14.1498 23.8075 14.2279 23.778 14.3008C23.7485 14.3736 23.7052 14.4398 23.6506 14.4956C23.5961 14.5513 23.5313 14.5955 23.46 14.6256C23.3887 14.6558 23.3123 14.6712 23.2352 14.6712C23.158 14.6711 23.0817 14.6554 23.0104 14.6252L22.8479 14.5563L22.2937 15.9231C22.2883 15.9368 22.2784 15.9468 22.2719 15.9599C22.9797 16.3724 23.5661 16.9717 23.9698 17.6951C23.9825 17.6886 23.9909 17.677 24.0041 17.6715L25.3414 17.1055L25.2739 16.9389C25.2144 16.7919 25.2144 16.6268 25.274 16.4798C25.3336 16.3328 25.4478 16.2161 25.5916 16.1552C25.7354 16.0944 25.897 16.0944 26.0408 16.1553C26.1846 16.2162 26.2988 16.333 26.3583 16.48L26.65 17.2002C26.6502 17.2004 26.6505 17.2006 26.6505 17.2008V17.2015L26.9422 17.9211C26.9718 17.9939 26.9871 18.072 26.9872 18.1509C26.9873 18.2297 26.9721 18.3078 26.9427 18.3807C26.9132 18.4536 26.8699 18.5198 26.8154 18.5755C26.7609 18.6313 26.6961 18.6756 26.6248 18.7057C26.5536 18.7359 26.4772 18.7514 26.4 18.7513C26.3229 18.7513 26.2465 18.7357 26.1753 18.7055C26.104 18.6752 26.0393 18.6309 25.9848 18.5751C25.9304 18.5192 25.8872 18.453 25.8578 18.3801L25.7906 18.2139L24.4531 18.7799C24.4398 18.7855 24.426 18.7836 24.4128 18.7881C24.6279 19.592 24.6277 20.4403 24.4122 21.2441Z" fill="white"/>
<defs>
<linearGradient id="paint0_linear_10979_3558" x1="-2.97705" y1="-2.57646" x2="49.1039" y2="9.61215" gradientUnits="userSpaceOnUse">
<stop offset="0.00972591" stop-color="#44C3F9"/>
<stop offset="1" stop-color="#27E4A0"/>
</linearGradient>
</defs>
</svg>
