<svg width="41" height="41" viewBox="0 0 41 41" fill="none" xmlns="http://www.w3.org/2000/svg">
<rect x="0.363281" y="0.994141" width="40" height="40" rx="6" fill="url(#paint0_linear_10033_3688)"/>
<path d="M29.6875 11.5879H10.7986C9.49646 11.5879 8.4375 12.6468 8.4375 13.949V28.1157C8.4375 29.4178 9.49646 30.4768 10.7986 30.4768H29.6875C30.9897 30.4768 32.0486 29.4178 32.0486 28.1157V13.949C32.0486 12.6468 30.9897 11.5879 29.6875 11.5879ZM16.3649 16.3101C17.7238 16.3101 18.726 17.3124 18.726 18.6712C18.726 20.03 17.7238 21.0323 16.3649 21.0323C15.0061 21.0323 14.0038 20.03 14.0038 18.6712C14.0038 17.3124 15.0049 16.3101 16.3649 16.3101ZM20.7507 25.7546H11.9792V25.2056C11.9792 23.5847 13.9578 21.9178 16.3649 21.9178C18.7721 21.9178 20.7507 23.5847 20.7507 25.2056V25.7546ZM28.5069 24.574H23.7847V22.2129H28.5069V24.574ZM28.5069 19.8518H22.6042V17.4907H28.5069V19.8518Z" fill="white"/>
<defs>
<linearGradient id="paint0_linear_10033_3688" x1="-2.61376" y1="-1.58232" x2="49.4672" y2="10.6063" gradientUnits="userSpaceOnUse">
<stop offset="0.00972591" stop-color="#44C3F9"/>
<stop offset="1" stop-color="#27E4A0"/>
</linearGradient>
</defs>
</svg>
