<svg width="40" height="41" viewBox="0 0 40 41" fill="none" xmlns="http://www.w3.org/2000/svg">
<g clip-path="url(#clip0_10033_3660)">
<rect x="0.078125" y="0.768555" width="39.1667" height="40" rx="6" fill="white"/>
<g opacity="0.3" filter="url(#filter0_f_10033_3660)">
<path d="M15.5137 11.1543C15.5137 6.1543 12.2039 3.73905 10.0137 3.1543L4.61365 3.88734L5.4406 25.8718L17.4321 25.4207C11.1544 18.1516 15.5137 17.2371 15.5137 11.1543Z" fill="black"/>
</g>
<path d="M21.7518 13.6521C21.7518 2.89472 14.6308 -2.30163 9.91869 -3.55972L-1.69936 -1.98259L0.0798028 45.3165L25.8793 44.3461C12.373 28.7066 21.7518 26.7391 21.7518 13.6521Z" fill="url(#paint0_linear_10033_3660)" stroke="white"/>
<path d="M9.82499 20.7685C12.7735 20.7685 14.9136 19.2551 14.9136 17.0539V17.0424C14.9136 15.3112 13.9386 14.3367 11.3825 13.7634L9.34942 13.3163C8.00594 13.0067 7.49471 12.5023 7.49471 11.757V11.7456C7.49471 10.7825 8.36262 10.152 9.74176 10.152C11.1922 10.152 12.0483 10.8857 12.2028 11.9405C12.2097 11.9866 12.2492 12.0207 12.2958 12.0207H14.4901C14.5644 12.0207 14.6227 11.9571 14.6163 11.8832C14.4855 9.83093 12.7022 8.2373 9.74176 8.2373C6.86458 8.2373 4.91476 9.71628 4.91476 11.8717V11.8832C4.91476 13.6373 6.09179 14.7379 8.46962 15.2653L10.5146 15.7125C11.858 16.022 12.3098 16.4691 12.3098 17.2488V17.2602C12.3098 18.2347 11.3825 18.8538 9.83687 18.8538C8.25561 18.8538 7.39959 18.2003 7.16181 17.0882C7.14796 17.0215 7.08914 16.9736 7.02094 16.9736H4.69762C4.64228 16.9736 4.59931 17.0218 4.60564 17.0768C4.8672 19.278 6.69813 20.7685 9.82499 20.7685Z" fill="white"/>
</g>
<rect x="0.578125" y="1.26855" width="38.1667" height="39" rx="5.5" stroke="url(#paint1_linear_10033_3660)"/>
<path d="M28.2842 21.8027C24.1791 21.8027 20.8438 25.1382 20.8438 29.2432C20.8438 33.3481 24.1791 36.6836 28.2842 36.6836C32.3892 36.6836 35.7246 33.3481 35.7246 29.2432C35.7246 25.1382 32.3892 21.8027 28.2842 21.8027ZM27.2344 22.599C26.5792 23.1457 25.6975 24.0735 25.0496 25.4134C24.4454 25.156 23.9279 24.8469 23.4915 24.5221C24.48 23.5219 25.7782 22.8269 27.2344 22.599ZM29.3339 22.599C30.7902 22.8269 32.0883 23.5219 33.0769 24.5221C32.6405 24.8469 32.123 25.156 31.5188 25.4134C30.8708 24.0735 29.9891 23.1457 29.3339 22.599ZM27.9315 22.9475V26.0361C27.0849 26.0036 26.3338 25.8616 25.6736 25.6462C26.3861 24.158 27.3936 23.3195 27.9315 22.9475ZM28.6368 22.9475C29.1748 23.3195 30.1823 24.158 30.8947 25.6462C30.2346 25.8616 29.4834 26.0036 28.6368 26.0361V22.9475ZM23.0245 25.0497C23.5082 25.4144 24.0867 25.7643 24.763 26.054C24.4542 26.864 24.2439 27.8064 24.2051 28.8905H21.567C21.6421 27.4384 22.1736 26.113 23.0245 25.0497ZM33.5439 25.0497C34.3948 26.113 34.9263 27.4384 35.0014 28.8905H32.3633C32.3245 27.8064 32.1142 26.864 31.8054 26.054C32.4817 25.7643 33.0602 25.4144 33.5439 25.0497ZM25.3981 26.2951C26.1398 26.544 26.983 26.7085 27.9315 26.7428V28.8905H24.9146C24.951 27.8921 25.13 27.0268 25.3981 26.2951ZM31.1703 26.2951C31.4384 27.0268 31.6174 27.8921 31.6538 28.8905H28.6368V26.7428C29.5854 26.7085 30.4285 26.544 31.1703 26.2951ZM21.567 29.5958H24.2051C24.2439 30.6799 24.4542 31.6224 24.763 32.4323C24.0867 32.722 23.5082 33.0719 23.0245 33.4366C22.1736 32.3734 21.6421 31.0479 21.567 29.5958ZM24.9146 29.5958H27.9315V31.7435C26.983 31.7779 26.1398 31.9423 25.3981 32.1912C25.13 31.4595 24.951 30.5942 24.9146 29.5958ZM28.6368 29.5958H31.6538C31.6174 30.5942 31.4384 31.4595 31.1703 32.1912C30.4285 31.9423 29.5854 31.7779 28.6368 31.7435V29.5958ZM32.3633 29.5958H35.0013C34.9262 31.0479 34.3947 32.3734 33.5438 33.4366C33.0601 33.0719 32.4816 32.722 31.8053 32.4323C32.1141 31.6224 32.3245 30.6799 32.3633 29.5958ZM27.9315 32.4502V35.5388C27.3936 35.1669 26.3861 34.3284 25.6736 32.8401C26.3338 32.6247 27.0849 32.4827 27.9315 32.4502ZM28.6368 32.4502C29.4834 32.4828 30.2346 32.6247 30.8947 32.8401C30.1823 34.3284 29.1748 35.1669 28.6368 35.5388V32.4502ZM25.0496 33.0729C25.6975 34.4128 26.5792 35.3406 27.2344 35.8873C25.7782 35.6595 24.48 34.9644 23.4915 33.9642C23.9279 33.6395 24.4454 33.3304 25.0496 33.0729ZM31.5188 33.0729C32.123 33.3304 32.6405 33.6395 33.0769 33.9642C32.0883 34.9644 30.7902 35.6595 29.3339 35.8873C29.9891 35.3406 30.8708 34.4128 31.5188 33.0729Z" fill="url(#paint2_linear_10033_3660)"/>
<defs>
<filter id="filter0_f_10033_3660" x="2.61328" y="1.1543" width="16.8203" height="26.7178" filterUnits="userSpaceOnUse" color-interpolation-filters="sRGB">
<feFlood flood-opacity="0" result="BackgroundImageFix"/>
<feBlend mode="normal" in="SourceGraphic" in2="BackgroundImageFix" result="shape"/>
<feGaussianBlur stdDeviation="1" result="effect1_foregroundBlur_10033_3660"/>
</filter>
<linearGradient id="paint0_linear_10033_3660" x1="-3.7797" y1="-6.16881" x2="31.2732" y2="-3.1321" gradientUnits="userSpaceOnUse">
<stop offset="0.00972591" stop-color="#44C3F9"/>
<stop offset="1" stop-color="#27E4A0"/>
</linearGradient>
<linearGradient id="paint1_linear_10033_3660" x1="-2.8369" y1="-1.8079" x2="48.2684" y2="9.90321" gradientUnits="userSpaceOnUse">
<stop offset="0.00972591" stop-color="#44C3F9"/>
<stop offset="1" stop-color="#27E4A0"/>
</linearGradient>
<linearGradient id="paint2_linear_10033_3660" x1="19.7362" y1="20.8442" x2="39.1115" y2="25.3787" gradientUnits="userSpaceOnUse">
<stop offset="0.00972591" stop-color="#44C3F9"/>
<stop offset="1" stop-color="#27E4A0"/>
</linearGradient>
<clipPath id="clip0_10033_3660">
<rect x="0.078125" y="0.768555" width="39.1667" height="40" rx="6" fill="white"/>
</clipPath>
</defs>
</svg>
