<svg width="39" height="41" viewBox="0 0 39 41" fill="none" xmlns="http://www.w3.org/2000/svg">
<path fill-rule="evenodd" clip-rule="evenodd" d="M38.8538 7.78542C38.8538 3.90742 35.8333 0.763673 32.1074 0.763673L7.58233 0.763672C3.8564 0.763672 0.835939 3.90742 0.835939 7.78542L0.835938 33.3116C0.835937 37.1895 3.8564 40.3333 7.58233 40.3333H32.1074C35.8333 40.3333 38.8538 37.1895 38.8538 33.3116V7.78542ZM20.0364 27.0571C20.0364 30.445 22.6844 33.2011 25.9395 33.2011C27.1616 33.2011 28.2981 32.8126 29.241 32.1481L32.172 35.1988C32.3913 35.427 32.6791 35.5417 32.967 35.5417C33.2549 35.5417 33.5427 35.427 33.762 35.1988C34.2016 34.7412 34.2016 34.0016 33.762 33.544L30.8309 30.4934C31.4694 29.5119 31.8426 28.329 31.8426 27.0571C31.8426 23.6691 29.1947 20.913 25.9395 20.913C22.6844 20.913 20.0364 23.6691 20.0364 27.0571ZM28.5177 29.7405C28.5429 29.7144 28.5689 29.6897 28.5957 29.6665C29.2142 28.9849 29.5938 28.0663 29.5938 27.0571C29.5938 24.9599 27.9544 23.2536 25.9395 23.2536C23.9246 23.2536 22.2852 24.9599 22.2852 27.0571C22.2852 29.1543 23.9246 30.8605 25.9395 30.8605C26.9091 30.8605 27.7918 30.4654 28.4466 29.8217C28.4689 29.7938 28.4926 29.7667 28.5177 29.7405ZM10.1979 7.45473H23.1285C24.8376 7.45473 26.2206 8.89419 26.2206 10.673V18.5842C26.1307 18.5725 26.0295 18.5725 25.9395 18.5725C21.4419 18.5725 17.7876 22.376 17.7876 27.0571C17.7876 28.9178 18.3611 30.6264 19.3506 32.0308H10.1979C8.48888 32.0308 7.10587 30.5913 7.10587 28.8125V10.673C7.10587 8.89419 8.48888 7.45473 10.1979 7.45473ZM23.148 15.0454C23.148 16.0399 22.3992 16.6676 21.1794 16.6676C20.1697 16.6676 19.5226 16.248 19.326 15.6908C19.2922 15.5991 19.2718 15.5003 19.2718 15.4051C19.2718 15.123 19.4582 14.936 19.7225 14.936C19.9326 14.936 20.0715 15.0207 20.1935 15.2464C20.3527 15.6343 20.7356 15.8106 21.2031 15.8106C21.752 15.8106 22.1248 15.5356 22.1248 15.1618C22.1248 14.8268 21.8944 14.6363 21.2811 14.5058L20.7626 14.4001C19.7869 14.199 19.3091 13.7124 19.3091 12.9542C19.3091 12.0232 20.0884 11.406 21.1761 11.406C22.0706 11.406 22.7448 11.7975 22.9616 12.4604C22.9854 12.531 22.9989 12.6051 22.9989 12.6967C22.9989 12.9506 22.8227 13.1234 22.5618 13.1234C22.3314 13.1234 22.1891 13.0282 22.0739 12.8096C21.9113 12.4251 21.5962 12.2665 21.1761 12.2665C20.6712 12.2665 20.3358 12.5134 20.3358 12.8872C20.3358 13.201 20.5695 13.395 21.1489 13.5148L21.6639 13.6242C22.7007 13.8393 23.148 14.2731 23.148 15.0454ZM10.3435 16.65C10.6146 16.65 10.7671 16.5089 10.8619 16.1704L11.1194 15.3769H12.8848L13.1422 16.181C13.2337 16.5125 13.3862 16.65 13.6742 16.65C13.9723 16.65 14.1858 16.4419 14.1858 16.1492C14.1858 16.0434 14.1689 15.9482 14.1214 15.8106L12.7797 12.0232C12.634 11.607 12.3968 11.4237 11.997 11.4237C11.6107 11.4237 11.3701 11.6141 11.2278 12.0266L9.89292 15.8106C9.84887 15.9411 9.82514 16.061 9.82514 16.1492C9.82514 16.456 10.0251 16.65 10.3435 16.65ZM11.3431 14.5517L11.9767 12.4675H12.0004L12.6475 14.5517H11.3431ZM15.1821 16.5829H16.5374C18.0045 16.5829 18.8685 15.6343 18.8685 14.0192C18.8685 12.404 18.0045 11.4941 16.5374 11.4941H15.1821C14.8602 11.4941 14.6705 11.6987 14.6705 12.0479V16.0257C14.6705 16.3784 14.8602 16.5829 15.1821 16.5829ZM15.6937 15.7013V12.3723H16.4154C17.3167 12.3723 17.8249 12.9576 17.8249 14.0227C17.8249 15.123 17.3302 15.7013 16.4154 15.7013H15.6937ZM9.90078 19.5923C9.90078 19.3153 10.1166 19.0908 10.3827 19.0908H17.3218C17.5879 19.0908 17.8037 19.3153 17.8037 19.5923C17.8037 19.8693 17.5879 20.0938 17.3218 20.0938H10.3827C10.1166 20.0938 9.90078 19.8693 9.90078 19.5923ZM10.3827 22.1C10.1166 22.1 9.90078 22.3246 9.90078 22.6016C9.90078 22.8786 10.1166 23.1032 10.3827 23.1032H15.2979C15.564 23.1032 15.7798 22.8786 15.7798 22.6016C15.7798 22.3246 15.564 22.1 15.2979 22.1H10.3827ZM9.90078 25.6109C9.90078 25.3339 10.1166 25.1094 10.3827 25.1094H15.2979C15.564 25.1094 15.7798 25.3339 15.7798 25.6109C15.7798 25.8879 15.564 26.1124 15.2979 26.1124H10.3827C10.1166 26.1124 9.90078 25.8879 9.90078 25.6109Z" fill="url(#paint0_linear_10033_3687)"/>
<defs>
<linearGradient id="paint0_linear_10033_3687" x1="-1.99359" y1="-1.78507" x2="47.705" y2="9.38988" gradientUnits="userSpaceOnUse">
<stop offset="0.00972591" stop-color="#44C3F9"/>
<stop offset="1" stop-color="#27E4A0"/>
</linearGradient>
</defs>
</svg>
